<?xml version="1.0" encoding="utf-8"?>
<!-- Generator: Adobe Illustrator 22.0.0, SVG Export Plug-In . SVG Version: 6.00 Build 0)  -->
<svg version="1.1" id="Layer_1" xmlns="http://www.w3.org/2000/svg" xmlns:xlink="http://www.w3.org/1999/xlink" x="0px" y="0px"
	 viewBox="0 0 512 512" style="enable-background:new 0 0 512 512;" xml:space="preserve">
<style type="text/css">
	.st0{fill:#414141;}
</style>
<path class="st0" d="M488.7,112L400,23.3c-3-3-8-3-11.1,0l-22.1,22.2c-3,3-3,8,0,11.2l16.6,16.6l-33.2,33.2l55.4,55.4l33.2-33.2
	l16.6,16.6c1.5,1.5,3.5,2.3,5.6,2.3s4.1-0.8,5.6-2.3l22.1-22.1C491.8,120,491.8,115,488.7,112z"/>
<path class="st0" d="M416.7,195L317,95.3c-3-3-8-3.1-11.1,0c-3,3-3.1,8,0,11.1l5.6,5.6l-39.4,39.4l20.8,20.8c2.1,2,2.8,4.9,2.2,7.6
	c-0.7,2.7-2.8,4.9-5.6,5.6c-2.7,0.7-5.7-0.1-7.6-2.2l-20.8-20.8L233,190.5l20.8,20.8c2.1,2,2.8,4.9,2.2,7.6
	c-0.7,2.7-2.8,4.9-5.6,5.6s-5.7-0.1-7.6-2.2L222,201.5l-28.1,28.1l20.8,20.8c2.1,2,2.8,4.9,2.2,7.6c-0.7,2.7-2.8,4.9-5.6,5.6
	c-2.7,0.7-5.7-0.1-7.6-2.2l-20.8-20.8l-28.1,28.1l20.8,20.8c2.1,2,2.8,4.9,2.2,7.6c-0.7,2.7-2.8,4.9-5.6,5.6
	c-2.7,0.7-5.7-0.1-7.6-2.2l-20.8-20.8l-25.9,25.9c-3,3-3,8,0,11.1l17.3,17.2L110.1,366c-2.3,3.1-2.1,7.5,0.7,10.4l7,7
	c-0.1,0.1-0.2,0.2-0.4,0.2l-94,94c-3,3-3,8,0,11.2c3.1,3,8,3,11.2,0l94-94c0.1-0.1,0.1-0.3,0.2-0.4l7,7c1.5,1.5,3.4,2.3,5.6,2.3
	c1.8,0,3.4-0.6,4.8-1.7l31.9-24.9l17.2,17.3c1.5,1.5,3.5,2.3,5.6,2.3s4-0.8,5.5-2.3l193.9-193.9l5.6,5.6c1.5,1.5,3.5,2.3,5.6,2.3
	s4-0.8,5.5-2.3s2.3-3.4,2.3-5.6C419,198.4,418.1,196.5,416.7,195z M217.3,339l-11.2,11.1c-1.5,1.5-3.4,2.3-5.5,2.3
	c-3.1,0-6-2-7.2-4.9s-0.6-6.3,1.7-8.5l11.1-11.2c3-3,8-3,11.2,0C220.4,331,220.4,336,217.3,339z M361.3,195L239.5,316.9
	c-3.1,3-8,3-11.2,0c-3-3-3-8,0-11.1l121.9-121.9c3.1-2.6,7.7-2.4,10.7,0.4C363.8,187.3,363.9,191.9,361.3,195z"/>
</svg>
