<?xml version="1.0" encoding="utf-8"?>
<!-- Generator: Adobe Illustrator 22.0.0, SVG Export Plug-In . SVG Version: 6.00 Build 0)  -->
<svg version="1.1" id="Capa_1" xmlns="http://www.w3.org/2000/svg" xmlns:xlink="http://www.w3.org/1999/xlink" x="0px" y="0px"
	 viewBox="0 0 512 512" style="enable-background:new 0 0 512 512;" xml:space="preserve">
<style type="text/css">
	.st0{fill:#414141;}
</style>
<path class="st0" d="M171.4,262.6l35-66.3c2.9-5.4,8.7-8.6,14.8-7.9c6.1,0.6,11.2,4.9,12.9,10.8L266.2,311l28.6-41.9
	c2.8-4.1,7.4-6.5,12.4-6.5h185.7c12.4-22.5,19.2-48.1,19.2-74.2C512,103.8,443.2,35,358.6,35c-38,0-74.6,14.2-102.6,39.4
	C228,49.2,191.4,35,153.4,35C68.8,35,0,103.8,0,188.4c0,26.1,6.8,51.7,19.2,74.2L171.4,262.6z"/>
<path class="st0" d="M315.1,292.6L273,354.3c-2.8,4.1-7.5,6.5-12.4,6.5c-0.8,0-1.6-0.1-2.4-0.2c-5.7-0.9-10.4-5.1-12-10.7
	l-30.6-106.7l-21.8,41.3c-2.6,4.9-7.7,8-13.3,8H40.8c2.7,2.9,5.6,5.8,8.5,8.5L228,466c7.6,7.1,17.6,10.9,28,10.9
	c10.9,0,21.2-4.2,28.9-11.9l177.7-164c3-2.7,5.8-5.6,8.5-8.5L315.1,292.6z"/>
</svg>
