<?xml version="1.0" encoding="utf-8"?>
<!-- Generator: Adobe Illustrator 22.0.0, SVG Export Plug-In . SVG Version: 6.00 Build 0)  -->
<svg version="1.1" id="Layer_1" xmlns="http://www.w3.org/2000/svg" xmlns:xlink="http://www.w3.org/1999/xlink" x="0px" y="0px"
	 viewBox="0 0 512 512" style="enable-background:new 0 0 512 512;" xml:space="preserve">
<style type="text/css">
	.st0{fill:#414141;}
</style>
<path class="st0" d="M71.9,303.4c-3.9-5.4-6.6-11.6-7.7-18.2c-5.4,3.9-11.6,6.6-18.2,7.7c3.9,5.4,6.6,11.6,7.7,18.2
	C59,307.3,65.3,304.6,71.9,303.4L71.9,303.4z"/>
<path class="st0" d="M130.8,231.8c46.6,24.7,47.9,30.5,44.8,68.4c-0.2,2.8-0.5,5.8-0.7,9c-5.3,68.9,12.9,114.2,31.7,133.6
	c1,0.6,2,1.1,3.1,1.4c3.7,1.4,7.8-0.3,9.5-3.8c0.6-1.4,0.8-3,0.5-4.5c0-0.2-0.1-0.3-0.1-0.5c-1.7-19.5-1.6-39.2,0.1-58.7
	c3.8-43.9,15.3-77.8,34.3-100.8c9.7-11.6,27-13.2,38.6-3.5c1.3,1.1,2.6,2.4,3.7,3.7c18.6,23.2,29.8,57.1,33.6,100.8
	c1.7,19.5,1.7,39,0.1,58.5c0,0.2,0,0.3-0.1,0.5c-0.3,1.5-0.1,3.1,0.5,4.5c1.7,3.6,5.8,5.2,9.5,3.8c1.1-0.3,2.2-0.8,3.1-1.5
	c18.7-19.4,36.9-64.6,31.7-133.6c-0.2-3.2-0.5-6.2-0.7-9c-3.2-37.9-1.8-43.7,44.7-68.4c13.5-7.2,23.7-23.1,27.9-43.8
	c3.4-16.7,2.7-34-2.1-50.3c-1.8,4-3.1,8.1-3.9,12.4c-0.7,3.2-3.8,5.4-7.1,4.7c-2.4-0.5-4.2-2.3-4.7-4.7
	c-4.5-22.9-22.4-40.8-45.3-45.3c-3.2-0.6-5.4-3.8-4.7-7.1c0.5-2.4,2.3-4.2,4.7-4.7c5-1,9.9-2.7,14.5-5c-15-4.4-32.6-3.9-52.5,1.5
	c-17.8,4.9-26.9,10.5-37.4,17c-6.3,4.1-12.9,7.8-19.7,11.1c17.6,7.3,31.9,9.6,44.6,7.1c3.3-0.6,6.4,1.5,7,4.7c0.6,3.3-1.5,6.4-4.7,7
	c-23.7,4.6-47.6-5.4-63.6-13.3c-3.3-1.6-7.8-4.2-12.9-7.2c-17.2-9.9-43.2-24.9-63.9-27.7c-63.5-8.4-83.9,33.2-89.7,51.5
	c-5.5,17.7-6,36.6-1.2,54.5C108.7,211.8,118.3,225.2,130.8,231.8L130.8,231.8z"/>
<path class="st0" d="M434.6,130.4c6.8-13.7,17.8-24.8,31.5-31.5c-13.7-6.8-24.8-17.8-31.5-31.5c-6.8,13.7-17.8,24.8-31.5,31.5
	C416.7,105.6,427.8,116.7,434.6,130.4z"/>
<path class="st0" d="M93.6,402.6c5.6-10.5,14.2-19.2,24.8-24.8c-10.5-5.6-19.2-14.2-24.8-24.8c-5.6,10.5-14.2,19.2-24.8,24.8
	C79.4,383.4,88,392.1,93.6,402.6z"/>
</svg>
