<?xml version="1.0" encoding="utf-8"?>
<!-- Generator: Adobe Illustrator 22.0.0, SVG Export Plug-In . SVG Version: 6.00 Build 0)  -->
<svg version="1.1" id="Layer_1" xmlns="http://www.w3.org/2000/svg" xmlns:xlink="http://www.w3.org/1999/xlink" x="0px" y="0px"
	 viewBox="0 0 512 512" style="enable-background:new 0 0 512 512;" xml:space="preserve">
<style type="text/css">
	.st0{fill:#414141;}
</style>
<g id="_x30_29---Hair-Follicle-Moisturising">
	<path id="Shape" class="st0" d="M328.3,41.4c1.8-4,0.5-8.7-3.2-11.1s-8.6-1.7-11.4,1.6c-27.6,32-59.6,86.3-74.9,174
		c-4.7,23.9-16.4,45.9-33.6,63.1c-25.6,26.7-26.3,68.7-1.5,96.2s66.6,31.2,95.8,8.5s35.9-64.2,15.4-95
		c-19.3-27.5-27.9-61.1-24.2-94.5C295.8,134.9,308.5,86.8,328.3,41.4L328.3,41.4z"/>
	<path id="Shape_1_" class="st0" d="M494.3,264.8H357.8c25.1,48.3,12.9,107.6-29.3,142s-102.8,34.4-145,0s-54.4-93.7-29.3-142H17.7
		c-9.8,0-17.7,7.9-17.7,17.7v211.9c0,9.8,7.9,17.7,17.7,17.7h476.7c9.8,0,17.7-7.9,17.7-17.7V282.5
		C512,272.7,504.1,264.8,494.3,264.8L494.3,264.8z M44.1,467.9c-4.9,0-8.8-4-8.8-8.8s4-8.8,8.8-8.8s8.8,4,8.8,8.8
		S49,467.9,44.1,467.9z M44.1,397.2c-4.9,0-8.8-4-8.8-8.8s4-8.8,8.8-8.8s8.8,4,8.8,8.8S49,397.2,44.1,397.2z M44.1,326.6
		c-4.9,0-8.8-4-8.8-8.8s4-8.8,8.8-8.8s8.8,4,8.8,8.8S49,326.6,44.1,326.6z M70.6,432.6c-4.9,0-8.8-4-8.8-8.8c0-4.9,4-8.8,8.8-8.8
		c4.9,0,8.8,4,8.8,8.8S75.5,432.6,70.6,432.6z M70.6,361.9c-4.9,0-8.8-4-8.8-8.8s4-8.8,8.8-8.8c4.9,0,8.8,4,8.8,8.8
		S75.5,361.9,70.6,361.9z M97.1,467.9c-4.9,0-8.8-4-8.8-8.8s4-8.8,8.8-8.8s8.8,4,8.8,8.8S102,467.9,97.1,467.9z M97.1,397.2
		c-4.9,0-8.8-4-8.8-8.8s4-8.8,8.8-8.8s8.8,4,8.8,8.8S102,397.2,97.1,397.2z M97.1,326.6c-4.9,0-8.8-4-8.8-8.8s4-8.8,8.8-8.8
		s8.8,4,8.8,8.8S102,326.6,97.1,326.6z M123.6,432.6c-4.9,0-8.8-4-8.8-8.8c0-4.9,4-8.8,8.8-8.8c4.9,0,8.8,4,8.8,8.8
		S128.5,432.6,123.6,432.6z M150.1,467.9c-4.9,0-8.8-4-8.8-8.8s4-8.8,8.8-8.8s8.8,4,8.8,8.8S154.9,467.9,150.1,467.9z M203,467.9
		c-4.9,0-8.8-4-8.8-8.8s4-8.8,8.8-8.8s8.8,4,8.8,8.8S207.9,467.9,203,467.9z M256,467.9c-4.9,0-8.8-4-8.8-8.8s4-8.8,8.8-8.8
		c4.8,0,8.8,4,8.8,8.8S260.9,467.9,256,467.9z M309,467.9c-4.9,0-8.8-4-8.8-8.8s4-8.8,8.8-8.8s8.8,4,8.8,8.8S313.8,467.9,309,467.9z
		 M361.9,467.9c-4.9,0-8.8-4-8.8-8.8s4-8.8,8.8-8.8s8.8,4,8.8,8.8S366.8,467.9,361.9,467.9z M388.4,432.6c-4.9,0-8.8-4-8.8-8.8
		c0-4.9,4-8.8,8.8-8.8s8.8,4,8.8,8.8C397.2,428.6,393.3,432.6,388.4,432.6z M414.9,467.9c-4.9,0-8.8-4-8.8-8.8s4-8.8,8.8-8.8
		s8.8,4,8.8,8.8S419.8,467.9,414.9,467.9z M414.9,397.2c-4.9,0-8.8-4-8.8-8.8s4-8.8,8.8-8.8s8.8,4,8.8,8.8S419.8,397.2,414.9,397.2z
		 M414.9,326.6c-4.9,0-8.8-4-8.8-8.8s4-8.8,8.8-8.8s8.8,4,8.8,8.8S419.8,326.6,414.9,326.6z M441.4,432.6c-4.9,0-8.8-4-8.8-8.8
		c0-4.9,4-8.8,8.8-8.8s8.8,4,8.8,8.8C450.2,428.6,446.3,432.6,441.4,432.6z M441.4,361.9c-4.9,0-8.8-4-8.8-8.8s4-8.8,8.8-8.8
		s8.8,4,8.8,8.8S446.3,361.9,441.4,361.9z M467.9,467.9c-4.9,0-8.8-4-8.8-8.8s4-8.8,8.8-8.8s8.8,4,8.8,8.8S472.7,467.9,467.9,467.9z
		 M467.9,397.2c-4.9,0-8.8-4-8.8-8.8s4-8.8,8.8-8.8s8.8,4,8.8,8.8S472.7,397.2,467.9,397.2z M467.9,326.6c-4.9,0-8.8-4-8.8-8.8
		s4-8.8,8.8-8.8s8.8,4,8.8,8.8S472.7,326.6,467.9,326.6z"/>
	<path id="Shape_2_" class="st0" d="M102.6,8.4c-22.1,28.7-58,90-58,119c-0.3,26.9,13.9,51.9,37.2,65.5c23.3,13.5,52,13.5,75.3,0
		s37.5-38.5,37.2-65.5c0-29-35.9-90.3-58-119C132.2,3.1,126,0,119.4,0S106.6,3.1,102.6,8.4z M117.3,163.1c-0.6,2.3-2,4.2-4,5.4
		s-4.4,1.5-6.7,1c-12.9-2.4-23.9-10.6-29.7-22.3C67.6,127.3,79,104,79.4,103c2.2-4.4,7.4-6.2,11.8-4.1c4.4,2.2,6.2,7.4,4.1,11.8
		c-4.5,9-5.4,19.5-2.4,29.1c3.7,6.7,10.4,11.4,18.1,12.5C115.7,153.6,118.5,158.4,117.3,163.1L117.3,163.1z"/>
	<path id="Shape_3_" class="st0" d="M403.5,126.2c-3.4-3.4-9-3.4-12.5,0l-8.8,8.8c-2.5,2.5-3.3,6.3-1.9,9.6s4.6,5.4,8.2,5.4
		c4.7,0,6-2.3,15.1-11.4C406.9,135.2,406.9,129.6,403.5,126.2z"/>
	<path id="Shape_4_" class="st0" d="M346.9,170.3l-8.8,8.8c-3.3,3.5-3.3,9,0.1,12.4s8.9,3.5,12.4,0.1l8.8-8.8
		c3.3-3.5,3.3-9-0.1-12.4C355.8,167,350.3,167,346.9,170.3z"/>
	<path id="Shape_5_" class="st0" d="M394.7,170.3c-3.5-3.3-9-3.3-12.4,0.1c-3.4,3.4-3.5,8.9-0.1,12.4c9.4,9.4,10.5,11.4,15.1,11.4
		c3.6,0,6.8-2.2,8.2-5.4c1.4-3.3,0.6-7.1-1.9-9.6L394.7,170.3z"/>
	<path id="Shape_6_" class="st0" d="M359.3,135l-8.8-8.8c-3.5-3.3-9-3.3-12.4,0.1s-3.5,8.9-0.1,12.4l8.8,8.8c3.5,3.3,9,3.3,12.4-0.1
		C362.6,144,362.7,138.5,359.3,135z"/>
	<path id="Shape_7_" class="st0" d="M456.4,29.1c-3.4-3.4-9-3.4-12.5,0l-8.8,8.8c-2.5,2.5-3.3,6.3-1.9,9.6s4.6,5.4,8.2,5.4
		c4.7,0,6-2.3,15.1-11.4C459.9,38.1,459.9,32.5,456.4,29.1z"/>
	<path id="Shape_8_" class="st0" d="M412.3,73.2c-3.4-3.4-9-3.4-12.5,0L391,82c-2.5,2.5-3.3,6.3-1.9,9.6c1.4,3.3,4.6,5.4,8.2,5.4
		c4.7,0,6-2.3,15.1-11.4C415.8,82.2,415.8,76.7,412.3,73.2z"/>
	<path id="Shape_9_" class="st0" d="M447.6,73.2c-3.5-3.3-9-3.3-12.4,0.1s-3.5,8.9-0.1,12.4c9.4,9.4,10.5,11.4,15.1,11.4
		c3.6,0,6.8-2.2,8.2-5.4c1.4-3.3,0.6-7.1-1.9-9.6L447.6,73.2z"/>
	<path id="Shape_10_" class="st0" d="M412.3,37.9l-8.8-8.8c-3.5-3.3-9-3.3-12.4,0.1s-3.5,8.9-0.1,12.4l8.8,8.8
		c3.5,3.3,9,3.3,12.4-0.1C415.6,46.9,415.7,41.4,412.3,37.9z"/>
</g>
</svg>
