<?xml version="1.0" encoding="utf-8"?>
<!-- Generator: Adobe Illustrator 22.0.0, SVG Export Plug-In . SVG Version: 6.00 Build 0)  -->
<svg version="1.1" id="Layer_1" xmlns="http://www.w3.org/2000/svg" xmlns:xlink="http://www.w3.org/1999/xlink" x="0px" y="0px"
	 viewBox="0 0 512 512" style="enable-background:new 0 0 512 512;" xml:space="preserve">
<style type="text/css">
	.st0{fill:#414141;}
</style>
<path class="st0" d="M458.2,52.5c-33.7-32.6-78.7-50.7-126.6-51c-40.2-0.3-78.2,12-110.2,35.4c-31,22.7-54,55.1-64.9,91.1
	c-7.7,25.5-4.5,53.2,9.1,80.3c28.7,57.1,36.8,109.6,28,181.2c-4.8,38.6,4.4,70.5,26.5,92.1c20.3,19.9,47.9,31,76.6,31
	c2.2,0,4.5-0.1,6.8-0.2c26.7-1.6,51.7-12.9,70.5-31.7c18.9-18.9,29.7-43.7,30.5-69.9c0.3-8.5-0.5-17-2.3-25.3
	c-5-22.8,5.8-47.1,26.9-60.4c52.3-33,83.1-88.9,82.4-149.4C511,128.9,492.1,85.2,458.2,52.5z M423.4,192.4c-8.3,0-15-6.7-15-15
	c0-41.4-35-75.1-78-75.1c-37,0-68.1,25-76,58.3c9.6,0.4,19.1,2.7,27.6,7.1c22.4,11.4,36.4,35.6,34.8,60.2
	c-1.6,24.2-18.2,46.3-41.4,55.1c-1.7,0.7-3.5,1-5.3,1c-6,0-11.7-3.7-14-9.7c-2.9-7.7,1-16.4,8.7-19.3c12.4-4.7,21.3-16.4,22.1-29
	c0.8-12.8-6.6-25.5-18.5-31.6c-8-4.1-18-5-26.7-2.4c-4.5,1.3-9.4,0.5-13.2-2.4c-3.8-2.8-6-7.3-6-12v-0.2c0-57.9,48.4-105,107.9-105
	s107.9,47.1,107.9,105C438.3,185.7,431.6,192.4,423.4,192.4z"/>
<path class="st0" d="M103.9,423.7c-3.9,0-7.8-1.5-10.8-4.6c-5.8-5.9-5.6-15.4,0.3-21.2c23.1-22.4,35.8-52.1,35.8-83.8
	s-12.7-61.4-35.8-83.8c-5.9-5.8-6.1-15.2-0.3-21.2c5.8-5.9,15.2-6.1,21.2-0.3c29,28.1,44.9,65.4,44.9,105.3s-15.9,77.2-44.9,105.3
	C111.4,422.3,107.6,423.7,103.9,423.7z"/>
<path class="st0" d="M60.1,381.3c-3.9,0-7.8-1.5-10.8-4.6c-5.8-5.9-5.6-15.4,0.3-21.2c11.6-11,17.9-25.7,17.9-41.3
	c0-15.6-6.3-30.3-17.7-41.4c-5.9-5.8-6.1-15.2-0.3-21.2s15.2-6.1,21.2-0.3c17.3,16.8,26.8,39.1,26.8,62.9s-9.5,46.1-26.8,62.9
	C67.7,379.9,63.9,381.3,60.1,381.3z"/>
<path class="st0" d="M17.8,331.4c-9.5,0-17.3-7.7-17.3-17.2S8.2,297,17.8,297s17.3,7.7,17.3,17.2C35,323.7,27.3,331.4,17.8,331.4z"
	/>
</svg>
