<?xml version="1.0" encoding="utf-8"?>
<!-- Generator: Adobe Illustrator 22.0.0, SVG Export Plug-In . SVG Version: 6.00 Build 0)  -->
<svg version="1.1" id="Capa_1" xmlns="http://www.w3.org/2000/svg" xmlns:xlink="http://www.w3.org/1999/xlink" x="0px" y="0px"
	 viewBox="0 0 512 512" style="enable-background:new 0 0 512 512;" xml:space="preserve">
<style type="text/css">
	.st0{fill:#414141;}
</style>
<g transform="translate(-1 -1)">
	<g>
		<g>
			<path class="st0" d="M375.9,37.6c-29.2,0.8-56.9,12.7-77.5,33.3c-2.2,2.2-5.4,3.1-8.4,2.4s-5.5-2.9-6.6-5.8
				c-6.4-18.6-11.6-37.6-15.5-56.9c-0.7-3.4-3.3-6.1-6.6-7c-13.8-3.2-28.1-3.4-42-0.7c-4.6,0.9-7.8,5.2-7.4,9.9
				c3.9,42.4,27.1,92.8,46,127.6c8.6,15.7,15.4,32.3,20.5,49.4c3.9,12.9,6,26.3,6.1,39.8c0,10.6-1.3,21.1-3.6,31.5
				c8.3,3.2,16.2,7.5,23.5,12.7c7.3,6.2,16.3,9.9,25.9,10.7c9.5-0.7,18.6-4.5,25.8-10.7c27.6-22.3,67-22.3,94.6,0
				c7.3,6.2,16.3,10,25.8,10.7c9.5-0.7,18.6-4.5,25.9-10.7c3.1-2.1,6.4-4.2,9.9-6.3c0.5-9.3,0.8-18.9,0.8-28.8
				C513,112.8,461.7,37.6,375.9,37.6z"/>
			<path class="st0" d="M440.4,288.9c-21.4-18.2-52.8-18.2-74.2,0c-10.2,8.4-22.9,13.2-36,13.8c-13.2-0.6-25.8-5.4-36-13.8
				c-5.7-4.1-11.8-7.6-18.3-10.3c-0.1,0.4-0.3,0.8-0.5,1.1c-1,2.7-2,5.3-3.1,7.9c-0.6,1.4-1.3,2.8-2,4.2c-0.9,1.8-1.7,3.6-2.6,5.4
				c-0.7,1.4-1.5,2.8-2.3,4.2c-0.9,1.7-1.9,3.3-2.9,4.9c-0.8,1.3-1.6,2.7-2.5,4c-1.6,2.4-3.3,4.8-5.1,7.1c-1.3,1.6-2.6,3.2-3.9,4.7
				c-0.7,0.8-1.4,1.7-2.1,2.5c-1.5,1.6-3,3.2-4.5,4.8c-0.5,0.5-1,0.9-1.4,1.4c-5.2,5.1-10.8,9.6-16.9,13.5c-0.4,0.2-0.7,0.5-1,0.7
				c-1.9,1.2-3.8,2.3-5.8,3.3c-0.5,0.3-1.1,0.5-1.6,0.8c-3.1,1.5-6.2,2.9-9.4,4c-1.1,0.4-2.3,0.9-3.4,1.2c-1.3,0.4-2.6,0.7-3.9,1
				c-1.7,0.4-3.4,0.8-5.1,1.1c-1.1,0.2-2.1,0.4-3.2,0.5c-2.8,0.4-5.7,0.6-8.6,0.6c-13.1,0-25.9-3-37.6-8.8
				c-13.9-6.7-29.2-9.9-44.7-9.5c-36.9-0.7-72.4,13.7-98.4,39.8c-1.6,1.8-2.4,3.9-2.4,6v36.6c-0.1,3.2,1.7,6.1,4.6,7.4
				c0.6,0.3,1.2,0.5,1.9,0.6c1.2,0.3,2.5,0.3,3.7,0.1c1.8-0.3,3.6-1.1,5-2.3c5.6-4.6,11.6-8.7,17.9-12.4
				c20.3-12.7,43.6-19.9,67.6-20.8c42,0,57.4,27.6,72.2,54.4c17.6,31.7,35.8,64.5,101.5,64.5c8.2,0,16.2-0.3,24-0.8
				c1-0.1,2-0.1,2.9-0.2c7.3-0.5,14.3-1.3,21.2-2.3c1.4-0.2,2.7-0.4,4-0.6c6.6-1,13-2.2,19.2-3.7c1.5-0.3,2.9-0.7,4.4-1.1
				c6-1.5,11.9-3.1,17.6-5c1.4-0.5,2.8-1,4.2-1.5c5.1-1.8,10-3.7,14.8-5.8c1.7-0.8,3.4-1.6,5.1-2.4c4.2-2,8.3-4.1,12.2-6.4
				c1.7-1,3.5-1.9,5.1-2.9c4.1-2.5,8.1-5.2,12-8c2-1.4,4-2.9,5.9-4.3c3.5-2.7,6.9-5.6,10.2-8.6c2.1-1.9,4.1-3.8,6-5.8
				c2.3-2.3,4.5-4.7,6.7-7.1c2.7-3,5.3-6.1,7.8-9.3c1.4-1.8,2.8-3.6,4.2-5.5c3.1-4.2,6-8.5,8.7-13c1-1.7,2-3.3,3-5
				c2.9-5,5.6-10.2,8.2-15.7c0.7-1.6,1.5-3.1,2.2-4.7c2.9-6.5,5.6-13.2,8-20.2c0.3-0.8,0.6-1.5,0.8-2.3c1.3-3.7,2.5-7.6,3.6-11.5
				c0.7-2.4,1.3-4.8,2-7.2c1.5-5.6,2.9-11.4,4.2-17.3c0.7-3.3,1.3-6.6,2-10c0.9-4.8,1.7-9.7,2.4-14.7c0.7-4.8,1.3-9.6,1.8-14.5
				c0.2-1.8,0.4-3.6,0.6-5.4c-9.8,7.7-21.7,12.1-34.2,12.5C463.3,302.1,450.6,297.3,440.4,288.9z M211.3,412.4c-5,0-9.1-4.1-9.1-9.1
				s4.1-9.1,9.1-9.1s9.1,4.1,9.1,9.1C220.4,408.4,216.3,412.4,211.3,412.4z M247.9,476.4c-5,0-9.1-4.1-9.1-9.1s4.1-9.1,9.1-9.1
				s9.1,4.1,9.1,9.1S252.9,476.4,247.9,476.4z M266.2,348.4c0-5,4.1-9.1,9.1-9.1s9.1,4.1,9.1,9.1s-4.1,9.1-9.1,9.1
				S266.2,353.5,266.2,348.4z M284.4,421.6c-5,0-9.1-4.1-9.1-9.1s4.1-9.1,9.1-9.1s9.1,4.1,9.1,9.1S289.5,421.6,284.4,421.6z
				 M339.3,476.4c-5,0-9.1-4.1-9.1-9.1s4.1-9.1,9.1-9.1s9.1,4.1,9.1,9.1C348.4,472.4,344.3,476.4,339.3,476.4z M357.6,385
				c-5,0-9.1-4.1-9.1-9.1s4.1-9.1,9.1-9.1s9.1,4.1,9.1,9.1S362.6,385,357.6,385z M412.4,439.9c-5,0-9.1-4.1-9.1-9.1s4.1-9.1,9.1-9.1
				s9.1,4.1,9.1,9.1S417.5,439.9,412.4,439.9z M430.7,357.6c-5,0-9.1-4.1-9.1-9.1s4.1-9.1,9.1-9.1s9.1,4.1,9.1,9.1
				S435.8,357.6,430.7,357.6z"/>
		</g>
	</g>
</g>
</svg>
