<?xml version="1.0" encoding="utf-8"?>
<!-- Generator: Adobe Illustrator 22.0.0, SVG Export Plug-In . SVG Version: 6.00 Build 0)  -->
<svg version="1.1" id="Layer_1" xmlns="http://www.w3.org/2000/svg" xmlns:xlink="http://www.w3.org/1999/xlink" x="0px" y="0px"
	 viewBox="0 0 458 458" style="enable-background:new 0 0 458 458;" xml:space="preserve">
<style type="text/css">
	.st0{fill:#414141;}
</style>
<path class="st0" d="M148.9,258.1v-50h-35v50c0,3.9-3.1,7-7,7H58v32h49c3.9,0,7,3.1,7,7v50h35v-50c0-3.9,3.1-7,7-7h50v-32h-50
	C152.1,265.1,148.9,262,148.9,258.1z"/>
<path class="st0" d="M221.3,149.7c-2.7-1.1-4.4-3.6-4.4-6.5v-27H46v27c0,2.9-1.8,4.9-4.4,6.9l0,0c-25,10-41.6,34.7-41.6,62.1V387
	c0,16.5,13.3,30,29.9,30h202.8c16.6,0,30.1-13.4,30.2-30V212.3C262.9,184.7,246.2,159.5,221.3,149.7z M219.9,304.1c0,3.9-3.1,7-7,7
	h-50v50c0,3.9-3.1,7-7,7h-49c-3.9,0-7-3.1-7-7v-50H51c-3.9,0-7-3.1-7-7v-46c0-3.9,3.1-7,7-7h49v-50c0-3.9,3.1-7,7-7h49
	c3.9,0,7,3.1,7,7v50h50c3.9,0,7,3.1,7,7v46H219.9z"/>
<path class="st0" d="M37,41.2h188.9v61H37V41.2z"/>
<path class="st0" d="M426,362h-43.2v55H426c15.2,0,27.5-12.3,27.5-27.5S441.2,362,426,362z"/>
<path class="st0" d="M439.9,316.3l-40.4-14.8l-17.1,46.6H426c9.9,0,19.4,3.5,26.9,9.9c5-7,6.4-15.9,3.8-24.1
	C454.2,325.8,448,319.2,439.9,316.3z"/>
<path class="st0" d="M311.6,319.3c3.1,6.6,8.6,11.8,15.5,14.3l39.6,14.5h0.9l18.8-51.4L346,281.9c-10.5-3.8-22.2-1-29.7,7.2
	C308.8,297.3,306.9,309.2,311.6,319.3z M325.1,318.6c1.3-3.6,5.3-5.5,9-4.2l31.9,11.7c2.4,0.8,4.1,2.9,4.5,5.4s-0.5,5-2.4,6.6
	s-4.6,2-6.9,1.2l-31.9-11.7C325.6,326.3,323.8,322.3,325.1,318.6z"/>
<path class="st0" d="M298.5,389.5c0,15.2,12.3,27.5,27.5,27.5h42.8v-55H326C310.8,362,298.5,374.3,298.5,389.5z M367,404
	c0,3.9-3.1,7-7,7h-34c-3.9,0-7-3.1-7-7s3.1-7,7-7h34C363.9,397,367,400.2,367,404z"/>
</svg>
