<?xml version="1.0" encoding="utf-8"?>
<!-- Generator: Adobe Illustrator 22.0.0, SVG Export Plug-In . SVG Version: 6.00 Build 0)  -->
<svg version="1.1" id="Layer_1" xmlns="http://www.w3.org/2000/svg" xmlns:xlink="http://www.w3.org/1999/xlink" x="0px" y="0px"
	 viewBox="0 0 512 512" style="enable-background:new 0 0 512 512;" xml:space="preserve">
<style type="text/css">
	.st0{fill:#414141;}
</style>
<g id="Page-1">
	<g id="_x30_11---Pregnant-Woman" transform="translate(-1)">
		<path id="Shape" class="st0" d="M413.3,82.7c-0.5-14.6-0.9-27.2-0.9-37c-0.2-13.2-5.3-25.8-14.4-35.3C392.2,4,384,0.3,375.4,0
			h-10.6c-15.8,62.1-18.5,126.8-7.9,190c8.7,3.1,17,7.5,24.4,13c4,3,4.9,8.8,1.8,12.8c-3,4-8.8,4.9-12.8,1.8
			c-21.7-16.3-51.2-18.5-77.3-20.4c-13.2-0.4-26.3-2.3-39-5.7c-8.3-2.7-16.5-6.1-24.3-9.4c-10.5-4.7-21.5-8.6-32.6-11.5
			c-0.8-0.1-1.6-0.2-2.3-0.5c-8.5-2-17.3-1.1-25.2,2.6c-4.8,2.3-8.7,6.2-11.1,11c14.8,2.5,28.6,9.1,39.8,19.1
			c82.9,44.9,179.3,58.5,207,61.6C417.4,208.6,415,133.3,413.3,82.7L413.3,82.7z"/>
		<circle id="Oval" class="st0" cx="266.1" cy="320" r="27.4"/>
		<path id="Shape_1_" class="st0" d="M311.2,0h-43.6c-3.2,0-6.2,1.7-7.8,4.4c-10.3,17.2-23.2,32.8-38.1,46.2
			c14.6,2.8,29.5,4.2,44.4,4.2C301.2,54.9,309.3,17.7,311.2,0z"/>
		<path id="Shape_2_" class="st0" d="M187.2,72.5c-14.6,5.6-23.8,20.1-22.8,35.7c1.3,20.8,15.5,38.6,35.5,44.4
			c12.7,3.1,25,7.3,36.9,12.7c7.6,3.1,15.4,6.3,23.1,8.9c11.3,2.8,22.9,4.4,34.6,4.8c14.4,0.8,28.7,2.5,42.9,5.3
			c-8.8-61.4-5.9-123.9,8.7-184.2h-16.4c-2.6,29.5-17.9,73.1-63.5,73.1c-21.6,0-43.1-2.8-64-8.2C197.4,67.9,192.4,70.4,187.2,72.5z"
			/>
		<path id="Shape_3_" class="st0" d="M276.3,475.4c-8.4,0.9-16.9,1.4-25.3,1.4c-31.2,0.2-62.1-6.5-90.5-19.6
			c-5.8,14.3-9.8,29.3-11.7,44.6c-0.3,2.6,0.5,5.2,2.2,7.2s4.2,3.1,6.9,3.1h232.4c2.7,0,5.3-1.2,7.1-3.3c1.7-2.1,2.4-4.9,1.9-7.6
			c-7.2-35.4-24-106.9-49.9-158.7c-10.2-22.4-15.2-46.7-14.6-71.3c-50.9-10.8-100-28.5-146.1-52.7c-0.8-0.4-1.5-0.9-2.1-1.6
			c-10.8-9.7-24.8-15.2-39.3-15.6h-0.1c-12.5,8.6-23.5,19.4-32.2,31.8c20.4,8.2,33.4,28.5,32.4,50.5c0.3,9.1,3.7,17.7,9.5,24.7
			c2.8-14.1,15.4-24.1,29.8-23.7c6.4-0.1,12.5,2.2,17.2,6.6c5.2,5.3,7.9,12.5,7.6,19.9c1,7.2,4.6,13.7,10.1,18.4
			c-4.7-22.1,7.5-44.4,28.7-52.3s45,0.9,56,20.7c11,19.8,5.8,44.7-12.2,58.4c0.4,19.6-6.5,38.7-19.3,53.6
			c-14.4,14-34.1,21.3-54.1,20.1c-41.3,0-51.6-14.5-60.9-33.4c-2.3-5.5-5.5-10.6-9.5-15c-5.3-5.3-11.1-10.2-17.2-14.5
			c-6.6-4.8-12.9-9.4-12.9-19.3c0-19,9.1-24.8,23.6-26.6c-9-10.4-14.1-23.6-14.5-37.4c1.3-15.5-8.4-29.9-23.3-34.6
			c-9.1,19.4-13.6,40.6-13.3,62c0,72.6,37.1,108.5,68.3,125.9c34.9,18.2,74.5,25.3,113.6,20.5c5-0.6,9.5,3.1,10.1,8.1
			C284.9,470.3,281.3,474.8,276.3,475.4L276.3,475.4z"/>
		<path id="Shape_4_" class="st0" d="M202.1,384c-1.4,0-2.8-0.3-4.1-0.9c-17.5-9.9-30.7-25.8-37.2-44.8c-22.7,0.1-22.7,0.7-22.7,9.1
			c1.6,1.8,3.4,3.3,5.4,4.6c6.9,4.9,13.4,10.4,19.3,16.4c5.4,5.8,9.9,12.5,13,19.9c6.6,13.5,11.4,23.2,44.5,23.2
			c15.1,1.1,29.9-4.2,40.9-14.4c7.9-9,12.7-20.2,13.7-32.2c-2.9,0.6-5.9,0.9-8.9,0.9c-40.5,0-73.1-30-73.1-54.9
			c0.2-2.4-0.5-4.8-1.9-6.7c-1.3-1-2.9-1.6-4.6-1.5c-5.7,0-11.8,4.2-11.8,8.2c-0.3,22.9,11.7,44.2,31.5,55.8
			c3.8,1.9,5.9,6.1,4.9,10.3C210.1,381.1,206.4,384,202.1,384L202.1,384z"/>
	</g>
</g>
</svg>
