<?xml version="1.0" encoding="utf-8"?>
<!-- Generator: Adobe Illustrator 22.0.0, SVG Export Plug-In . SVG Version: 6.00 Build 0)  -->
<svg version="1.1" id="Layer_1" xmlns="http://www.w3.org/2000/svg" xmlns:xlink="http://www.w3.org/1999/xlink" x="0px" y="0px"
	 viewBox="0 0 512 512" style="enable-background:new 0 0 512 512;" xml:space="preserve">
<style type="text/css">
	.st0{fill:#414141;}
</style>
<path class="st0" d="M384,26c-39.5,0-83.3,32.5-85.3,85c-0.6,16.3,6.7,33.2,14.4,51c1.7,4,3.4,8,5.1,12
	c8.2-37.1,40.5-66.7,76.7-66.7c4.8,0,8.7,3.9,8.7,8.7s-3.9,8.7-8.7,8.7c-32,0-61.2,32.1-61.2,67.4c0,3.9-2.7,7-6.2,8.1
	c-23.8-11.3-46.3-47.7-46.3-92.5c0-4.8-3.9-8.7-8.7-8.7c-4.8,0-8.7,3.9-8.7,8.7c0,43.7,19.2,83.4,45.6,102.2
	c-24.1,8.9-43.7,27.1-54.4,50.4c-10.6-23.2-30.2-41.5-54.4-50.4c26.4-18.8,45.6-58.5,45.6-102.2c0-4.8-3.9-8.7-8.7-8.7
	s-8.7,3.9-8.7,8.7c0,44.8-22.5,81.2-46.3,92.5c-3.6-1.1-6.2-4.2-6.2-8.1c0-35.3-29.2-67.4-61.2-67.4c-4.8,0-8.7-3.9-8.7-8.7
	s3.9-8.7,8.7-8.7c36.2,0,68.5,29.5,76.7,66.7c1.7-4,3.4-8,5.1-12c7.7-17.8,15.1-34.7,14.4-51c-2-52.5-45.8-85-85.3-85
	C62.1,26,10.1,112.3,10.1,218.5S62.1,411,126,411c23.5,0,67.4,0,84.8-49.6c6.9-19.6-1.9-42.9-12-69.8c-5-13.2-10.3-27.4-13.8-41.9
	c-9.9,31.8-35.5,58.8-69.9,58.8c-4.8,0-8.7-3.9-8.7-8.7c0-4.8,3.9-8.7,8.7-8.7c33.8,0,56.5-35.6,56.9-69.2
	c41.4,2.3,74.3,36.6,74.3,78.5v175c0,4.8,3.9,8.7,8.7,8.7c4.8,0,8.7-3.9,8.7-8.7v-175c0-41.9,33-76.2,74.3-78.5
	c0.3,33.6,23.1,69.2,56.9,69.2c4.8,0,8.7,3.9,8.7,8.7c0,4.8-3.9,8.7-8.7,8.7c-34.4,0-60-27-69.9-58.8c-3.6,14.5-8.9,28.7-13.8,41.9
	c-10.1,26.9-18.9,50.1-12,69.8C316.6,411,360.4,411,384,411c63.9,0,115.9-86.3,115.9-192.5S447.9,26,384,26z M115,221.6
	c-4.8,0-8.7-3.9-8.7-8.7s3.9-8.7,8.7-8.7h52.5c-4.8,0-8.7,3.9-8.7,8.7s3.9,8.7,8.7,8.7H115z M395,221.6h-52.5c4.8,0,8.7-3.9,8.7-8.7
	s-3.9-8.7-8.7-8.7H395c4.8,0,8.7,3.9,8.7,8.7C403.7,217.7,399.8,221.6,395,221.6z"/>
</svg>
