<?xml version="1.0" encoding="utf-8"?>
<!-- Generator: Adobe Illustrator 22.0.0, SVG Export Plug-In . SVG Version: 6.00 Build 0)  -->
<svg version="1.1" id="Layer_1" xmlns="http://www.w3.org/2000/svg" xmlns:xlink="http://www.w3.org/1999/xlink" x="0px" y="0px"
	 viewBox="0 0 512 512" style="enable-background:new 0 0 512 512;" xml:space="preserve">
<style type="text/css">
	.st0{fill:#414141;}
</style>
<g id="Brain">
	<path class="st0" d="M412.1,195.3c-0.1,0-0.3-0.1-0.4-0.1c-22.1-7.2-46.3-1.8-63.3,14c-3.2,3.1-8.2,3-11.3-0.2
		c-3.1-3.2-3-8.2,0.2-11.3c0.1-0.1,0.2-0.2,0.3-0.2c19.9-18.7,48.1-25.8,74.5-18.8c6.1-7.7,10-16.9,11.4-26.6H464V72h-16v64h-24.6
		c-4-27.5-27.5-48-55.4-48c-5.8,0-11.5,0.9-17,2.7c-3.4,20.6-16.7,38.2-35.6,47.2c-4,1.9-8.8,0.2-10.7-3.8s-0.2-8.8,3.8-10.7
		c24-11.3,34.3-39.9,23-63.9s-39.9-34.3-63.9-23c-2.5,1.2-4.8,2.5-7.1,4.1c-2.7,1.9-6.4,1.9-9.2,0c-21.7-15.2-51.6-9.9-66.8,11.8
		c-4.5,6.4-7.3,13.8-8.3,21.6c-2.6,21.6,9.6,42.3,29.8,50.5c15.4,5.8,25.6,20.4,25.9,36.8V176c0,4.4-3.6,8-8,8s-8-3.6-8-8v-14.7
		c-0.3-9.9-6.6-18.6-15.8-21.9c-20.6-8.4-35.4-26.8-39.2-48.7c-5.5-1.8-11.2-2.7-17-2.7V32H80v16h48v42.4
		c-29.6,8.8-46.5,39.9-37.7,69.6c2,6.8,5.3,13.1,9.7,18.7c26.4-7,54.6,0.1,74.5,18.8c3.3,2.9,3.6,8,0.6,11.3
		c-2.9,3.3-8,3.6-11.3,0.6c-0.1-0.1-0.2-0.2-0.3-0.2c-17-15.8-41.2-21.2-63.3-14c-0.1,0.1-0.3,0.1-0.4,0.1
		C73.7,204,56.1,228.4,56,256c0,16.2,6.2,31.9,17.4,43.6c9-12.3,23.4-19.6,38.6-19.6c4.4,0,8,3.6,8,8s-3.6,8-8,8
		c-17.7,0-32,14.3-32,32H32v96h16v-80h36.4c5.7,9.9,16.2,16,27.6,16c0.2,0,0.4-0.1,0.6-0.1c4.8-27.9,29.1-48.1,57.4-47.9h14
		c13.3,0,24-10.7,24-24v-8c0-4.4,3.6-8,8-8s8,3.6,8,8v8c0,22.1-17.9,40-40,40h-14c-22.1-0.4-40.6,16.7-42,38.8
		c-0.3,22.1,17.3,40.3,39.4,40.6s40.3-17.3,40.6-39.4c0-4.4,3.6-8,8-8s8,3.6,8,8c0,17.8-8.5,34.5-22.8,45c-0.8,3.6-1.2,7.3-1.2,11
		c0,30.9,25.1,56,56,56s56-25.1,56-56c0-3.7-0.4-7.4-1.2-11.1c-12.2-8.9-20.3-22.4-22.3-37.4c-0.4-2.5-0.5-5-0.5-7.5
		c0-4.4,3.6-8,8-8s8,3.6,8,8c0,1.8,0.1,3.5,0.4,5.3c1.5,11.7,8.1,22,18,28.3c0.3,0.2,0.5,0.4,0.8,0.6c6.3,3.8,13.5,5.8,20.8,5.8v56
		h80v-16h-64v-43.4c14.9-6.4,24.3-21.2,24-37.4l0,0c0-0.1,0-0.1,0-0.2s0-0.1,0-0.2c-1.4-22.1-19.9-39.2-42-38.8h-14
		c-4.4,0-8-3.6-8-8s3.6-8,8-8h14c28.3-0.2,52.5,20.1,57.4,47.9c0.2,0,0.4,0.1,0.6,0.1c17.7,0,32-14.3,32-32s-14.3-32-32-32
		c-4.4,0-8-3.6-8-8s3.6-8,8-8c15.3,0,29.6,7.3,38.6,19.6c11.2-11.8,17.4-27.4,17.4-43.6C456,228.4,438.3,203.9,412.1,195.3z
		 M120,272c-4.4,0-8-3.6-8-8s3.6-8,8-8c8.8,0,16-7.2,16-16s-7.2-16-16-16s-16,7.2-16,16c0,4.4-3.6,8-8,8s-8-3.6-8-8
		c0-17.7,14.3-32,32-32s32,14.3,32,32S137.7,272,120,272z M168,376c4.4,0,8,3.6,8,8s-3.6,8-8,8c-13.3,0-24-10.7-24-24s10.7-24,24-24
		c4.4,0,8,3.6,8,8s-3.6,8-8,8s-8,3.6-8,8S163.6,376,168,376z M224,248c0,4.4-3.6,8-8,8s-8-3.6-8-8v-8c0-4.4,3.6-8,8-8s8,3.6,8,8V248
		z M224,112c-17.7,0-32-14.3-32-32c0-4.4,3.6-8,8-8s8,3.6,8,8c0,8.8,7.2,16,16,16c4.4,0,8,3.6,8,8S228.4,112,224,112z M264,456
		c0,4.4-3.6,8-8,8s-8-3.6-8-8v-8c0-4.4,3.6-8,8-8s8,3.6,8,8V456z M264,416c0,4.4-3.6,8-8,8s-8-3.6-8-8V72c0-4.4,3.6-8,8-8s8,3.6,8,8
		V416z M272,56c0-4.4,3.6-8,8-8c17.7,0,32,14.3,32,32c0,4.4-3.6,8-8,8s-8-3.6-8-8c0-8.8-7.2-16-16-16C275.6,64,272,60.4,272,56z
		 M296,152v8c0,4.4-3.6,8-8,8s-8-3.6-8-8v-8c0-4.4,3.6-8,8-8S296,147.6,296,152z M296,328h-8c-4.4,0-8-3.6-8-8s3.6-8,8-8h8
		c4.4,0,8,3.6,8,8S300.4,328,296,328z M324.4,230.7l-2.6,1.8c-11.1,7.4-17.8,19.9-17.8,33.3v6.3c0,4.4-3.6,8-8,8s-8-3.6-8-8v-6.3
		c0-18.7,9.3-36.2,24.9-46.6l2.6-1.8c3.7-2.5,8.6-1.5,11.1,2.2C329.1,223.2,328.1,228.2,324.4,230.7L324.4,230.7z M368,280
		c4.4,0,8,3.6,8,8s-3.6,8-8,8c-17.7,0-32-14.3-32-32s14.3-32,32-32c4.4,0,8,3.6,8,8s-3.6,8-8,8c-8.8,0-16,7.2-16,16
		C352,272.8,359.2,280,368,280z M424,256c-4.4,0-8-3.6-8-8c0-8.8-7.2-16-16-16c-4.4,0-8-3.6-8-8s3.6-8,8-8c17.7,0,32,14.3,32,32
		C432,252.4,428.4,256,424,256z"/>
	<circle class="st0" cx="456" cy="40" r="16"/>
	<circle class="st0" cx="456" cy="456" r="16"/>
	<circle class="st0" cx="40" cy="456" r="16"/>
	<circle class="st0" cx="48" cy="40" r="16"/>
</g>
</svg>
