<?xml version="1.0" encoding="utf-8"?>
<!-- Generator: Adobe Illustrator 22.0.0, SVG Export Plug-In . SVG Version: 6.00 Build 0)  -->
<svg version="1.1" id="Capa_1" xmlns="http://www.w3.org/2000/svg" xmlns:xlink="http://www.w3.org/1999/xlink" x="0px" y="0px"
	 viewBox="0 0 512 512" style="enable-background:new 0 0 512 512;" xml:space="preserve">
<style type="text/css">
	.st0{fill:#414141;}
</style>
<g>
	<path class="st0" d="M4.4,296.6c5.9,5.9,15.4,5.9,21.2,0L51.2,271h41.6c3.8,18.5,14.4,35.1,29.9,46.1c-1.1,4.6-1.7,9.2-1.7,13.9
		c0,11.1,3.2,21.4,8.5,30.3L99.8,391H63.6c-8.3,0-15,6.7-15,15s6.7,15,15,15H91v27.4c0,8.3,6.7,15,15,15s15-6.7,15-15v-36.2
		l29.7-29.7c8.9,5.3,19.2,8.5,30.3,8.5c4.7,0,9.3-0.6,13.9-1.7c11,15.5,27.6,26,46.1,29.9v41.6l-25.6,25.6c-5.9,5.9-5.9,15.4,0,21.2
		c5.9,5.9,15.4,5.9,21.2,0l19.4-19.4l19.4,19.4c5.9,5.9,15.4,5.9,21.2,0s5.9-15.4,0-21.2L271,460.8v-41.6
		c18.5-3.8,35.1-14.4,46.1-29.9c4.6,1.1,9.2,1.7,13.9,1.7c11.1,0,21.4-3.2,30.3-8.5l29.7,29.7v36.2c0,8.3,6.7,15,15,15s15-6.7,15-15
		V421h27.4c8.3,0,15-6.7,15-15s-6.7-15-15-15h-36.2l-29.7-29.7c5.3-8.9,8.5-19.2,8.5-30.3c0-4.7-0.6-9.3-1.7-13.9
		c15.5-11,26-27.6,29.9-46.1h41.6l25.6,25.6c5.9,5.9,15.4,5.9,21.2,0c5.9-5.9,5.9-15.4,0-21.2L488.2,256l19.4-19.4
		c5.9-5.9,5.9-15.4,0-21.2s-15.4-5.9-21.2,0L460.8,241h-41.6c-3.8-18.5-14.4-35.1-29.9-46.1c1.1-4.6,1.7-9.2,1.7-13.9
		c0-11.1-3.2-21.4-8.5-30.3l29.7-29.7h36.2c8.3,0,15-6.7,15-15s-6.7-15-15-15H421V63.6c0-8.3-6.7-15-15-15s-15,6.7-15,15v36.2
		l-29.7,29.7c-8.9-5.3-19.2-8.5-30.3-8.5c-4.7,0-9.3,0.6-13.9,1.7c-11-15.5-27.6-26-46.1-29.9V51.2l25.6-25.6
		c5.9-5.9,5.9-15.4,0-21.2s-15.4-5.9-21.2,0L256,23.8L236.6,4.4c-5.9-5.9-15.4-5.9-21.2,0s-5.9,15.4,0,21.2L241,51.2v41.6
		c-18.5,3.8-35.1,14.4-46.1,29.9c-4.6-1.1-9.2-1.7-13.9-1.7c-11.1,0-21.4,3.2-30.3,8.5L121,99.8V63.6c0-8.3-6.7-15-15-15
		s-15,6.7-15,15V91H63.6c-8.3,0-15,6.7-15,15s6.7,15,15,15h36.2l29.7,29.7c-5.3,8.9-8.5,19.2-8.5,30.3c0,4.7,0.6,9.3,1.7,13.9
		c-15.5,11-26,27.6-29.9,46.1H51.2l-25.6-25.6c-5.9-5.9-15.4-5.9-21.2,0s-5.9,15.4,0,21.2L23.8,256L4.4,275.4
		C-1.5,281.3-1.5,290.7,4.4,296.6L4.4,296.6z M346,241c8.3,0,15,6.7,15,15c0,8.3-6.7,15-15,15s-15-6.7-15-15S337.7,241,346,241
		L346,241z M256,361c-8.3,0-15-6.7-15-15s6.7-15,15-15c8.3,0,15,6.7,15,15S264.3,361,256,361z M256,151c8.3,0,15,6.7,15,15
		s-6.7,15-15,15s-15-6.7-15-15S247.7,151,256,151z M256,211c24.8,0,45,20.2,45,45s-20.2,45-45,45s-45-20.2-45-45S231.2,211,256,211z
		 M181,256c0,8.3-6.7,15-15,15s-15-6.7-15-15s6.7-15,15-15S181,247.7,181,256z"/>
	<circle class="st0" cx="256" cy="256" r="15"/>
</g>
</svg>
