<?xml version="1.0" encoding="utf-8"?>
<!-- Generator: Adobe Illustrator 22.0.0, SVG Export Plug-In . SVG Version: 6.00 Build 0)  -->
<svg version="1.1" id="Capa_1" xmlns="http://www.w3.org/2000/svg" xmlns:xlink="http://www.w3.org/1999/xlink" x="0px" y="0px"
	 viewBox="0 0 512 512" style="enable-background:new 0 0 512 512;" xml:space="preserve">
<style type="text/css">
	.st0{fill:#414141;}
</style>
<g>
	<path class="st0" d="M104,323.1c0-38,14-72.7,37.1-99.4c-51,20-99.7,53.1-137.5,90.7c-4.8,4.8-4.8,12.5,0,17.3
		c37.3,37,85.6,70.4,137.5,90.7C118,395.8,104,361,104,323.1z"/>
	<path class="st0" d="M370.9,223.7C394,250.4,408,285.1,408,323c0,38-14,72.7-37.1,99.4c51-20,99.7-53.1,137.5-90.7
		c4.8-4.8,4.8-12.5,0-17.3C471.1,277.4,422.8,244.1,370.9,223.7L370.9,223.7z"/>
	<path class="st0" d="M256,201.2c-67.2,0-121.9,54.7-121.9,121.9S188.8,444.9,256,444.9S377.9,390.2,377.9,323
		S323.2,201.2,256,201.2z M256,380.3c-31.6,0-57.2-25.7-57.2-57.2s25.7-57.2,57.2-57.2s57.2,25.7,57.2,57.2S287.6,380.3,256,380.3z"
		/>
	<circle class="st0" cx="256" cy="323.1" r="27.1"/>
	<path class="st0" d="M256,132.3c8.3,0,15.1-6.7,15.1-15.1V82.1c0-8.3-6.7-15.1-15.1-15.1c-8.3,0-15.1,6.7-15.1,15.1v35.1
		C240.9,125.5,247.7,132.3,256,132.3z"/>
	<path class="st0" d="M345.7,152.4c7.2,4.1,16.4,1.6,20.5-5.6l20-35.1c4.1-7.2,1.6-16.4-5.6-20.5s-16.4-1.6-20.5,5.6l-20,35.1
		C336,139.1,338.5,148.3,345.7,152.4z"/>
	<path class="st0" d="M145.7,146.8c4.1,7.2,13.3,9.7,20.5,5.6c7.2-4.1,9.7-13.3,5.6-20.5l-20-35.1c-4.1-7.2-13.3-9.7-20.5-5.6
		s-9.7,13.3-5.6,20.5L145.7,146.8z"/>
</g>
</svg>
