<?xml version="1.0" encoding="utf-8"?>
<!-- Generator: Adobe Illustrator 22.0.0, SVG Export Plug-In . SVG Version: 6.00 Build 0)  -->
<svg version="1.1" id="Layer_1" xmlns="http://www.w3.org/2000/svg" xmlns:xlink="http://www.w3.org/1999/xlink" x="0px" y="0px"
	 viewBox="0 0 512 512" style="enable-background:new 0 0 512 512;" xml:space="preserve">
<style type="text/css">
	.st0{fill:#414141;}
</style>
<path class="st0" d="M160.2,247.2h2.3c8.2,0,16.4-2,23.8-5.6l6.2-3.2c11.5-5.7,24.3-8.8,37.2-8.8s25.7,3.1,37.2,8.8l6.2,3.2
	c7.3,3.7,15.6,5.6,23.8,5.6h2.3c29.4,0,53.3-23.9,53.3-53.3c0-14.3-5.6-27.6-15.6-37.6c-29.6-29.5-45.8-68.9-45.8-110.6V1.6H168.3
	v44.1c0,35.2-11.6,68.5-33,95.8l28.3,0.3l34.3-51.5l73.5-18.4l4.3,17L217,103.6l17.7,29.5h38.9v17.5h-48.8l-21.7-36.2l-30,45.1
	l-52.8-0.7c-8.6,9.8-13.3,22-13.3,35.1C106.9,223.3,130.8,247.2,160.2,247.2z M160.2,212.1h2.3c2.9,0,5.6-0.7,8.1-1.9l6.4-3.2
	c32.7-16.3,73-16.3,105.7,0l6.2,3.2c2.5,1.2,5.4,2,8.1,2h2.3v17.5H297c-5.5,0-11.1-1.3-16-3.7l-6.2-3.2c-27.8-13.9-62.2-13.9-90,0
	l-6.4,3.2c-4.9,2.4-10.4,3.7-15.9,3.7h-2.3V212.1L160.2,212.1z"/>
<path class="st0" d="M142.1,262.4c-9.8-2.6-18.9-7.1-26.4-13.4v20.4c0,24.3,5.7,48.7,16.7,70.4l0.9,1.9v58.1
	c0,14.8,6.5,28.7,17.5,38.2v-70.6c0-16.8,3.2-33.2,9.4-48.8c0.1-0.3,0.4-1,2-3.7c-12.9-13.3-20.1-30.8-20.1-49.3
	C142,264.3,142.1,263.3,142.1,262.4z"/>
<path class="st0" d="M367,214.3c-8.8,29.2-35.9,50.4-67.8,50.4h-2.3c-11,0-21.8-2.6-31.7-7.5l-6.4-3.2c-18.1-9.1-40.5-9.1-58.7,0
	l-6.2,3.2c-9.8,4.9-20.7,7.5-31.7,7.5H160c-0.2,0-0.4,0-0.5,0c0,0.2,0,0.4,0,0.7c0,14.3,5.6,27.6,15.6,37.6
	c29.6,29.5,45.8,68.7,45.8,110.5v96.8h122.8v-96.7c0-41.8,16.2-81,45.8-110.5c10.1-10.1,15.6-23.5,15.6-37.6
	C405.1,241.9,389.4,221,367,214.3z M321.5,309.5c-9.8,3.9-20,6.4-30.4,7.3v40.8l41.3,41.3L320,411.4l-38.5-38.5l-25.5,19v48.2h-17.5
	v-57l35.1-26.3V317c-14.9-0.9-29.7-4.6-43.1-11.3l-13.5-6.8l7.9-15.7l13.5,6.8c23.6,11.8,52.1,12.9,76.5,3.2l25.5-10.2l6.5,16.3
	L321.5,309.5z"/>
</svg>
