<?xml version="1.0" encoding="utf-8"?>
<!-- Generator: Adobe Illustrator 22.0.0, SVG Export Plug-In . SVG Version: 6.00 Build 0)  -->
<svg version="1.1" id="Layer_1" xmlns="http://www.w3.org/2000/svg" xmlns:xlink="http://www.w3.org/1999/xlink" x="0px" y="0px"
	 viewBox="0 0 512 512" style="enable-background:new 0 0 512 512;" xml:space="preserve">
<style type="text/css">
	.st0{fill:#414141;}
	.st1{fill:#FFFFFF;}
</style>
<g>
	<g>
		<path class="st0" d="M512,160c0-52.9-43.1-96-96-96s-96,43.1-96,96c0,6.6,0.7,13,1.9,19.3c-10.5-5.5-22.2-8.6-34.6-8.6H160h-14
			C89,170.7,42.7,217,42.7,274c0,18,4.7,35.7,13.6,51.3l6.1,10.6l0,0l15.3,26.7h-35C19.1,362.7,0,381.8,0,405.3S19.1,448,42.7,448
			h74.7c29.4,0,53.3-23.9,53.3-53.3v-53.3h131.4l30.8,77c7.2,18,24.4,29.6,43.9,29.6c21.7,0,40.5-14.7,45.7-35.7l0.9-3.6
			c2.4-9.7,1.8-19.7-2-29l-55.2-138c14.5,8.9,31.4,14.3,49.7,14.3C468.9,256,512,212.9,512,160z M149.3,320H77.8l-3-5.3
			C67.7,302.4,64,288.3,64,274c0-45.2,36.8-82,82-82h3.3V320L149.3,320z"/>
	</g>
</g>
<path class="st1" d="M440.7,66c0,0,28.1,35-19.9,64.5c0,0-3,9.5,8,7c0,0,45.5-19,28.5-65.5L440.7,66z"/>
</svg>
