<?xml version="1.0" encoding="utf-8"?>
<!-- Generator: Adobe Illustrator 22.0.0, SVG Export Plug-In . SVG Version: 6.00 Build 0)  -->
<svg version="1.1" id="Layer_1" xmlns="http://www.w3.org/2000/svg" xmlns:xlink="http://www.w3.org/1999/xlink" x="0px" y="0px"
	 viewBox="0 0 512 512" style="enable-background:new 0 0 512 512;" xml:space="preserve">
<style type="text/css">
	.st0{fill:#414141;}
</style>
<g id="_x30_39---Spots">
	<path id="Shape" class="st0" d="M338.2,288c-4.6-1.1-9-2.4-13.4-3.9c-0.5,16.8-2.2,33.4-5.1,50C335.3,324.8,338.9,306.1,338.2,288
		L338.2,288z"/>
	<path id="Shape_1_" class="st0" d="M258.8,240.2c-8.1-9-15.1-18.9-20.9-29.5c-8.8-0.3-19.1-0.4-32.3-0.4c-45.1,0-67.2-22.9-77.4-40
		c-16.1,17.5-23.9,45-23.9,83.6c0,50,3.3,88,19.6,123c19.1,40.8,46.6,61.6,81.7,61.6c34.9,0,62.3-20.7,81.4-61.6
		c15-31.9,18.6-64.5,19.5-100.3c-12.6-6.2-24.4-14.1-34.9-23.5L225.9,299c-2.3,2.4-5.7,3.3-8.9,2.5s-5.7-3.3-6.5-6.5
		s0.1-6.6,2.5-8.9L258.8,240.2z M137.1,356.6c-5,0-9.1-4.1-9.1-9.1s4.1-9.1,9.1-9.1s9.1,4.1,9.1,9.1S142.2,356.6,137.1,356.6z
		 M155.4,329.1c-5,0-9.1-4.1-9.1-9.1s4.1-9.1,9.1-9.1s9.1,4.1,9.1,9.1C164.6,325,160.5,329.1,155.4,329.1z M173.7,356.6
		c-5,0-9.1-4.1-9.1-9.1s4.1-9.1,9.1-9.1s9.1,4.1,9.1,9.1S178.8,356.6,173.7,356.6z M274.3,338.3c5,0,9.1,4.1,9.1,9.1
		s-4.1,9.1-9.1,9.1s-9.1-4.1-9.1-9.1S269.2,338.3,274.3,338.3z M256,310.9c5,0,9.1,4.1,9.1,9.1s-4.1,9.1-9.1,9.1s-9.1-4.1-9.1-9.1
		S251,310.9,256,310.9z M237.7,338.3c5,0,9.1,4.1,9.1,9.1s-4.1,9.1-9.1,9.1s-9.1-4.1-9.1-9.1S232.7,338.3,237.7,338.3z"/>
	<path id="Shape_2_" class="st0" d="M374.9,36.6c-41.4,0.1-78.5,25.5-93.6,64h13c2.6,0,5.1-1.1,6.7-3C319.6,76.2,346.6,64,374.9,64
		s55.2,12.2,73.9,33.5c3.2,4,7.5,3,19.7,3C453.4,62,416.2,36.6,374.9,36.6z"/>
	<path id="Shape_3_" class="st0" d="M7.3,449.7c10.8,12.6,30.5,31.4,100.5,40.4c9.3,1.2,19.2,2,29.4,2.6v-64.5
		c-19.3-20.5-33.2-45.4-40.5-72.6c-14.7-3.9-41.8-17.4-41.8-63.5c0-21.4,4.9-34.3,15.1-39.4c5.1-2.4,10.9-2.8,16.2-1.2
		c0.4-49.6,13.2-83.5,39.3-103.5c2.3-1.7,5.2-2.3,8-1.6c2.8,0.8,5,2.8,6.1,5.4c5.9,14.9,22.4,39.9,66.1,39.9c9.2,0,17,0,24,0.2
		c-12.3-32-13.6-67.2-3.6-100c-28.7,1.9-56.7,9.6-82.3,22.8c-2.9,1.6-3.8,0.9-13.8,0.9c-28.1,0.6-94.7,11.2-103,96.9
		C18.2,304.6,67.9,420.8,7.3,449.7L7.3,449.7z"/>
	<path id="Shape_4_" class="st0" d="M164.6,512h82.3c5,0,9.1-4.1,9.1-9.1v-60.3c-30.8,18.9-69.7,19-100.6,0.1v60.1
		C155.4,507.9,159.5,512,164.6,512z"/>
	<path id="Shape_5_" class="st0" d="M78.2,269.1c-0.2,0.1-5.1,2.7-5.1,23.1c0,24.4,9.1,36.2,18.7,41.9c-3.5-20.7-5.3-41.7-5.5-62.7
		C82.1,269,79.2,268.6,78.2,269.1z"/>
	<path id="Shape_6_" class="st0" d="M274.3,428v64.8c10.2-0.6,20-1.3,29.5-2.6c70-9,89.7-27.8,100.5-40.4
		c-44.6-21.3-29.6-92.1-22.3-157.5c-8.5,0.7-17,0.4-25.4-0.8c0.1,37.6-17.6,58-42.2,64.4C307.3,382.8,293.5,407.6,274.3,428
		L274.3,428z"/>
	<path id="Shape_7_" class="st0" d="M434.5,109.1c-15.2-17-36.9-26.7-59.7-26.7c-22.8,0-44.5,9.7-59.7,26.7
		c-5.1,6.3-12.8,9.9-21,9.8H276c-1.1,6-1.7,12.1-1.7,18.3h17.9c14.1,0.4,27.7-5.5,36.9-16.2c11.7-13,28.3-20.4,45.7-20.4
		c17.4,0,34.1,7.4,45.7,20.4c9.2,10.7,22.8,16.6,36.9,16.2h17.9c0-6.1-0.6-12.3-1.7-18.3h-18.2C447.4,118.9,439.7,115.3,434.5,109.1
		z"/>
	<path id="Shape_8_" class="st0" d="M374.9,0c-75.7,0-137.1,61.4-137.1,137.1s61.4,137.1,137.1,137.1S512,212.9,512,137.1
		C511.9,61.4,450.6,0.1,374.9,0z M489.7,107c3.5,12.6,4.7,25.8,3.6,38.9c0,0.1,0.1,0.2,0.1,0.4s-0.1,0.4-0.1,0.6
		c-5,61.6-56.5,109.1-118.4,109.1s-113.3-47.5-118.4-109.1c0-0.2-0.1-0.4-0.1-0.6s0.1-0.2,0.1-0.4c-1.2-13.1,0-26.2,3.6-38.9
		c13.7-52.2,60.9-88.6,114.8-88.6C428.8,18.4,476,54.8,489.7,107L489.7,107z"/>
	<path id="Shape_9_" class="st0" d="M374.9,155.4c-8,0.9-14.9,5.9-18.2,13.3c5.3,3.7,11.7,5.5,18.2,5c6.6,0.7,13.2-1.2,18.4-5.3
		C389.7,161.2,382.8,156.4,374.9,155.4z"/>
	<path id="Shape_10_" class="st0" d="M406.3,132.3c-8.2-8.6-19.6-13.5-31.4-13.5c-11.9,0-23.3,4.9-31.4,13.5
		c-12.6,15.1-31.5,23.6-51.2,23.1H276c8.8,47.7,50.4,82.3,98.8,82.3s90-34.6,98.8-82.3h-16.2C437.8,155.9,419,147.4,406.3,132.3z
		 M338.3,169.1c2.5-18.3,18.1-32,36.6-32s34.1,13.7,36.6,32C411.4,199.6,338.3,199.7,338.3,169.1z"/>
</g>
</svg>
