<?xml version="1.0" encoding="utf-8"?>
<!-- Generator: Adobe Illustrator 22.0.0, SVG Export Plug-In . SVG Version: 6.00 Build 0)  -->
<svg version="1.1" id="Capa_1" xmlns="http://www.w3.org/2000/svg" xmlns:xlink="http://www.w3.org/1999/xlink" x="0px" y="0px"
	 viewBox="0 0 512 512" style="enable-background:new 0 0 512 512;" xml:space="preserve">
<style type="text/css">
	.st0{fill:#414141;}
</style>
<g transform="translate(-1 -1)">
	<g>
		<g>
			<path class="st0" d="M240.4,98.1L257,70.5c-5.1-3-9.1-7.4-11.4-12.8l-29.8,5.9c0,0.5,0.2,1.1,0.2,1.6c0,5.1-1.5,10.2-4.3,14.5
				L240.4,98.1z"/>
			<circle class="st0" cx="316.5" cy="129.1" r="9.1"/>
			<circle class="st0" cx="270.8" cy="46.9" r="9.1"/>
			<path class="st0" d="M269.1,120h21.6c1.8-5,5-9.4,9.3-12.7l-27.4-27.4l-15.4,25.7C262.7,108.9,266.9,114,269.1,120z"/>
			<path class="st0" d="M177.7,120h39.9c1.4-4,3.7-7.6,6.7-10.5l-28.2-18.1c-5.7,1.8-11.9,1.6-17.5-0.7l-11.7,15.6
				C171.9,109.5,175.7,114.4,177.7,120z"/>
			<circle class="st0" cx="188.5" cy="65.2" r="9.1"/>
			<circle class="st0" cx="243.4" cy="129.1" r="9.1"/>
			<path class="st0" d="M417.7,187.4c0,0.1,0,0.2,0,0.3c1.9,4.3,6.7,6.4,11.1,5s7.1-6,6.1-10.6s-5.2-7.7-9.9-7.2
				c-4.6,0.5-8.2,4.4-8.1,9.1C416.9,185.1,417.1,186.2,417.7,187.4L417.7,187.4z"/>
			<path class="st0" d="M395.1,119.3c0.1,0,0.2,0,0.2,0l0.1,0.1c1.1,0.4,2.2,0.6,3.3,0.7c4.7,0,8.7-3.5,9.2-8.2s-2.6-9-7.2-10
				s-9.2,1.7-10.6,6.2S390.8,117.4,395.1,119.3z"/>
			<circle class="st0" cx="343.9" cy="65.2" r="9.1"/>
			<path class="st0" d="M341.7,118.5l29.8-5.9c0-0.5-0.2-1.1-0.2-1.6c0-3.2,0.6-6.5,1.8-9.5l-15.3-12.7c-4.2,2.5-9,3.9-13.9,3.9
				c-15.1,0-27.4-12.3-27.4-27.4c0-0.7,0.1-1.3,0.2-2L295.8,58c-1.9,4.2-4.9,7.9-8.6,10.7l33.5,33.5
				C330,103.6,338,109.8,341.7,118.5z"/>
			<path class="st0" d="M365.5,193.9L365.5,193.9c-1.1-0.5-2.2-0.7-3.4-0.7c-4.7,0-8.7,3.5-9.2,8.2s2.6,9,7.2,10s9.2-1.7,10.7-6.2
				s-0.7-9.3-5.1-11.2C365.7,193.9,365.6,193.9,365.5,193.9z"/>
			<path class="st0" d="M334.2,149.9l29.6,23.7l16.9-42.2c-0.6-0.6-1.3-1.1-1.8-1.7l-36.2,7.2C341.1,142,338.2,146.5,334.2,149.9z"
				/>
			<path class="st0" d="M362.2,229.7c-11,0-20.9-6.6-25.2-16.7l-30.9,6.2c-1.1,3.9-3.1,7.5-5.9,10.5l30.3,46.2
				c10.5-1.9,21.2,2.7,26.9,11.7l15.4-12.3c-1-2.9-1.6-5.9-1.6-8.9c0-9.3,4.8-18,12.7-23.1l-11.3-15.6
				C369.4,229,365.8,229.7,362.2,229.7z"/>
			<path class="st0" d="M336,194.5c1.5-5.1,4.4-9.6,8.5-13L319,161.1l-19,31.7c2.2,2.3,4,5,5.2,7.9L336,194.5z"/>
			<path class="st0" d="M398.8,185.1c0-0.4-0.1-0.7-0.1-1.1c0-10,5.5-19.2,14.3-24l-11-22c-1.1,0.2-2.2,0.3-3.3,0.3
				c-0.4,0-0.7-0.1-1.1-0.1l-17.4,43.6c2.6,2.3,4.8,5.1,6.3,8.2L398.8,185.1z"/>
			<circle class="st0" cx="334.8" cy="302.8" r="9.1"/>
			<path class="st0" d="M421,374.6c23-40.3,39-84.3,47.2-130c13.2-71.5-7.9-169.6-85.4-216C333.4,1,275.2-6.2,220.5,8.4
				C143.6,29,89.3,81.7,71.7,153.2c-3.8,13.7-5.5,28-4.8,42.2c0.4,5.4,1.3,10.9,2.5,16.2c10.4-8.3,22.5-14.3,35.4-17.6
				c7.4-1.4,15-1,22.2,1.2c3.1,0.9,5.6,3.3,6.4,6.5s-0.1,6.5-2.4,8.8c-2.3,2.3-5.7,3.2-8.8,2.3c-4.4-1.4-9-1.7-13.6-0.9
				c-12.7,3.7-24.5,10.2-34.5,19c2.8,11.1,4,22.5,3.8,33.9c-0.5,20.6-13.1,39.6-23.3,54.9c-4.7,7.1-13.5,20.4-12.2,23.6
				c0.2,0.4,2.2,2.2,8.8,3.6c7.2,0,14.1,2.9,19.1,8.1s7.8,12.1,7.6,19.3c-0.2,6,0,12,0.6,18c1.9,0.2,5.6,0.2,8.9,0.2
				c4.3,0,7.9,2.9,8.9,7.1c1,4.1-1.1,8.4-4.9,10.3c-2.2,1.1-4.3,2.6-6,4.3c1.5,1,3.2,1.6,4.9,1.9c9.3,2.2,15.5,6.8,15.5,22.2
				c-0.1,4-0.3,8.1-0.8,12.1c-1.5,14.1-2.1,20,13.1,24.9c24,7.9,131.6-17.8,157.5-51.7c3.1-4,8.8-4.8,12.8-1.7
				c4,3.1,4.8,8.8,1.7,12.8c-11.2,14.6-34.5,28-61,38.4c6.6,12.5,11.2,26.1,13.4,40.1h202.2c-16.9-29.6-36.6-87.4-36.9-109.2
				c-0.2-1.4,0-2.9,0.6-4.2C411.6,392,415.9,384,421,374.6z M398.7,293.7c-5.1,0-10.1-1.5-14.4-4.2l-22.6,18.1
				c-2,11.5-11,20.5-22.5,22.4s-22.9-3.7-28.5-13.9c-5.6-10.2-4.1-22.9,3.8-31.5l-30.3-46.2c-13,2.4-25.8-5.3-29.9-17.9h-49.1
				c-3.8,10.6-13.6,17.8-24.9,18.2c-11.3,0.4-21.6-6.2-26-16.6c-4.4-10.4-2.1-22.4,5.9-30.3l-14.7-36.2c-12.6-3-21.3-14.5-20.9-27.4
				s9.7-23.8,22.5-26.1l17.7-23.6c-2.4-4.1-3.6-8.7-3.7-13.4c0-11.2,6.8-21.3,17.3-25.5c10.4-4.1,22.4-1.5,30,6.7l36.2-7.2
				c3.4-11.7,14.1-19.7,26.3-19.7s22.8,8.2,26.1,20l27.1,6.8c8.9-9.5,23.3-11.4,34.4-4.4s15.7,20.7,11,32.9l15.3,12.7
				c4.2-2.5,9-3.9,13.9-3.9c11,0,21,6.6,25.3,16.7s2.1,21.9-5.6,29.7l13.7,27.4c11.6,2.5,20.3,12.3,21.4,24.1s-5.5,23.1-16.4,27.8
				s-23.6,1.8-31.5-7.1l-16.9,6.8c-0.5,2.2-1.4,4.3-2.4,6.3l17.5,24.3c13.9,2.6,23.6,15.4,22.3,29.5
				C424.7,282.9,412.9,293.7,398.7,293.7z"/>
			<circle class="st0" cx="152" cy="129.1" r="9.1"/>
			<circle class="st0" cx="398.7" cy="266.2" r="9.1"/>
			<circle class="st0" cx="279.9" cy="211.4" r="9.1"/>
			<path class="st0" d="M217.6,138.3h-39.9c-2.4,6.6-7.2,12-13.4,15.2l12.5,30.7c0.9-0.1,1.7-0.3,2.6-0.3c1.7,0,3.5,0.2,5.2,0.5
				l41.3-34.4C222.1,147,219.3,142.9,217.6,138.3z"/>
			<circle class="st0" cx="179.4" cy="211.4" r="9.1"/>
			<path class="st0" d="M200.9,194.7c1.8,2.3,3.2,4.9,4.2,7.6h49.1c1.4-4.1,3.8-7.7,6.9-10.7l-15.3-34.3L200.9,194.7z"/>
			<path class="st0" d="M279.9,184c1.3,0,2.5,0.2,3.7,0.4l19-31.7c-5.5-3.3-9.8-8.4-11.9-14.4h-21.6c-1.4,4.1-3.8,7.7-6.9,10.7
				l15.7,35.2C278.5,184.2,279.2,184,279.9,184z"/>
		</g>
	</g>
</g>
</svg>
