<?xml version="1.0" encoding="utf-8"?>
<!-- Generator: Adobe Illustrator 22.0.0, SVG Export Plug-In . SVG Version: 6.00 Build 0)  -->
<svg version="1.1" id="Layer_1" xmlns="http://www.w3.org/2000/svg" xmlns:xlink="http://www.w3.org/1999/xlink" x="0px" y="0px"
	 viewBox="0 0 512 512" style="enable-background:new 0 0 512 512;" xml:space="preserve">
<style type="text/css">
	.st0{fill:#414141;}
</style>
<path class="st0" d="M364.3,106V31c0-3.8-2.5-7-6-8c-2.5-0.6-60-17-102.3-17s-99.8,16.4-102.3,17c-3.5,1-6,4.3-6,8v75
	c-18.4,0-33.3,14.9-33.3,33.3s14.9,33.3,33.3,33.3h0.6c3.8,35,30.1,64.5,58,82.2c-0.1,0.4-0.2,0.7-0.2,1.1v33.3
	c0,4.6,3.8,8.3,8.3,8.3c4.6,0,8.3-3.8,8.3-8.3v-25.5c10.4,5.2,21.8,8.2,33.3,8.9c11.6-0.6,22.9-3.6,33.3-8.9v25.5
	c0,4.6,3.8,8.3,8.3,8.3c4.6,0,8.3-3.8,8.3-8.3V256c0-0.4-0.1-0.8-0.2-1.1c27.9-17.7,54.3-47.2,58-82.2h0.6
	c18.4,0,33.3-14.9,33.3-33.3S382.8,106,364.3,106z M147.7,156c-9.2,0-16.7-7.5-16.7-16.7s7.5-16.7,16.7-16.7V156z M256,22.7
	c18.4,0,33.3,14.9,33.3,33.3S274.4,89.3,256,89.3S222.7,74.4,222.7,56S237.6,22.7,256,22.7z M347.7,142.5
	c-28.5,14.2-59.9,21.7-91.7,21.9c-31.8-0.2-63.1-7.7-91.7-21.9V106h183.3v36.5H347.7z M364.3,156v-33.3c9.2,0,16.7,7.5,16.7,16.7
	S373.5,156,364.3,156z"/>
<path class="st0" d="M197.7,139.3h25c4.6,0,8.3-3.8,8.3-8.3c0-4.6-3.8-8.3-8.3-8.3h-25c-4.6,0-8.3,3.8-8.3,8.3
	C189.3,135.6,193.1,139.3,197.7,139.3z"/>
<path class="st0" d="M289.3,139.3h25c4.6,0,8.3-3.8,8.3-8.3c0-4.6-3.8-8.3-8.3-8.3h-25c-4.6,0-8.3,3.8-8.3,8.3
	C281,135.6,284.8,139.3,289.3,139.3z"/>
<path class="st0" d="M206,422.7c0-2.2,0.8-4.4,2.4-5.9l47.6-47.5l-77.4-77.5c-1.6-1.6-3.8-2.4-5.9-2.4h-8.3
	C77.4,290.5,7.1,360.7,6,447.7v50c0,4.6,3.8,8.3,8.3,8.3H206V422.7z"/>
<path class="st0" d="M347.7,289.3h-8.3c-2.2,0-4.4,0.8-5.9,2.4L256,369.2l11.8,11.8l-45.1,45.1V506h275c4.6,0,8.3-3.8,8.3-8.3v-50
	C504.9,360.7,434.6,290.5,347.7,289.3z M389.3,431h-25v25c0,4.6-3.8,8.3-8.3,8.3s-8.3-3.8-8.3-8.3v-25h-25c-4.6,0-8.3-3.8-8.3-8.3
	c0-4.6,3.8-8.3,8.3-8.3h25v-25c0-4.6,3.8-8.3,8.3-8.3s8.3,3.8,8.3,8.3v25h25c4.6,0,8.3,3.8,8.3,8.3C397.7,427.3,393.9,431,389.3,431
	z"/>
</svg>
