<?xml version="1.0" encoding="utf-8"?>
<!-- Generator: Adobe Illustrator 22.0.0, SVG Export Plug-In . SVG Version: 6.00 Build 0)  -->
<svg version="1.1" id="Capa_1" xmlns="http://www.w3.org/2000/svg" xmlns:xlink="http://www.w3.org/1999/xlink" x="0px" y="0px"
	 viewBox="0 0 512 512" style="enable-background:new 0 0 512 512;" xml:space="preserve">
<style type="text/css">
	.st0{fill:#414141;}
</style>
<g>
	<g>
		<g>
			<path class="st0" d="M182.9,201.1c-0.3-6.7-1.8-13.3-4.6-19.5c-4.4-1.8-9.2-2.1-13.7-0.6c-12.3,3.6-25.5-0.4-33.8-10
				c-8.7-8.7-15.6-15.6-30.1-15.6c-5,0-9.1-4.1-9.1-9.1s4.1-9.1,9.1-9.1c16.7,0.3,32.5,8,43,21c4.1,5.4,11.2,7.4,17.5,5
				c2.4-0.5,4.8-0.8,7.2-1.1l-0.1-0.2c-6.9-10.1-11.2-21.7-12.8-33.8c-0.9-8.2-5.9-15.5-13.3-19.3c-4.5-2.3-6.3-7.8-4-12.3
				s7.7-6.3,12.2-4.1c5.8,3.2,11,7.5,15.1,12.7c0.6-0.6,1.2-1.2,1.8-1.8c4.5-4.5,6.5-6.7,6.5-11.8c0-5,4.1-9.1,9.1-9.1
				s9.1,4.1,9.1,9.1c-0.1,9.6-4.4,18.6-11.8,24.8c-4.5,4.5-6.5,6.7-6.5,11.8c1.9,8.9,5.4,17.4,10.5,25c9.6,14.4,15.4,31,16.9,48.2
				c0,21,19.4,48.4,45.3,66c-1.2-18.6-3.6-37.1-7-55.4c-7.4-39.7-11-80-10.8-120.3v-1.7c0-2.5,0-5.2-0.1-8v-0.2
				c0-1.3-0.1-2.7-0.2-4.1v-0.4c-0.1-1.3-0.3-2.7-0.5-4l-0.1-0.5c-0.2-1.3-0.5-2.6-0.8-3.9c0-0.2-0.1-0.4-0.1-0.6
				c-0.3-1.2-0.7-2.5-1.1-3.7c-0.1-0.2-0.2-0.4-0.2-0.6c-0.4-1.2-0.9-2.3-1.5-3.4c-0.1-0.2-0.2-0.4-0.4-0.7c-0.6-1.1-1.3-2.1-2-3
				c-0.6-0.8-1.2-1.6-1.9-2.3C212,48.1,202,45,192,45.8c-24.6,1-48.3,9.9-67.4,25.4c-28.7,21.5-52.8,48.5-70.8,79.5L35.7,187
				c-6.7,11.4-12.6,23.2-17.8,35.4C9.2,248.2,0,287.7,0,429.7c0,38,19.2,82.3,73.1,82.3c2.4,0,41.2,0,43.6-0.1
				c44.3-0.7,84.4-26.6,103.1-66.8c15-36.3,23.6-74.9,25.4-114.1c-21.4,6.7-44.9,30.2-55.9,41.2c-2.8,2.8-5.5,5.3-8.2,7.7
				c-0.3,0.5-0.6,1-0.9,1.4c-9.7,14.3-15.1,31.1-15.6,48.4c1.2,18.1-7.8,35.4-23.3,44.8c-4.5,2.2-10,0.4-12.2-4.1s-0.4-10,4.1-12.3
				c9.2-6.4,14.3-17.2,13.2-28.4c0.3-9.8,1.9-19.5,4.8-28.8c-19.5,10.5-42.8,10.8-62.6,0.9c-1.7-0.3-3.4-0.9-5-1.7
				c-8.2-0.2-16.2,2.9-22.1,8.6c-2.3,2.3-5.7,3.3-8.9,2.4s-5.7-3.3-6.5-6.5s0.1-6.6,2.4-8.9c5.6-5.2,12.1-9.3,19.3-12
				c-1.2-2-2.1-3.7-2.7-4.9c-2.2-4.5-0.4-10,4.1-12.2s10-0.4,12.3,4.1c2.2,4.5,5.2,8.6,8.7,12.1c1.6,0.5,3.1,1.1,4.7,1.8
				c0.4,0.1,0.8,0.3,1.2,0.5c25.3,12.4,50.1,4.4,80.5-25.9c14.1-14.1,41.8-41.7,69.8-47.3c0-0.6,0.1-1.2,0.1-1.8
				c-10.7-1.8-21.1-5.2-30.7-10.2c-0.9,0.7-2,1.2-3.1,1.5c-0.7,1-1.7,2.7-2.5,4c-6.3,14.4-20.6,23.7-36.3,23.7
				c-14.5,0-21.4,6.9-30.1,15.6c-2.3,2.3-5.7,3.3-8.9,2.4s-5.7-3.3-6.5-6.5s0.1-6.6,2.4-8.9c4.2-4.4,8.7-8.3,13.6-11.9
				c-1.6-1.2-3-2.3-4.3-3.4c-4.8-4-7.2-5.7-11.9-5.7c-5,0-9.1-4.1-9.1-9.1s4.1-9.1,9.1-9.1c8.8,0.2,17.2,3.7,23.5,9.8
				c5.9,5.8,13.9,8.8,22.2,8.5c12.1,0,16.2-7.1,20.5-14.5c1.2-2.1,2.4-4.1,3.8-6c-4.6-2.8-9.1-5.6-13.5-8.3
				c-10-6.9-20.7-12.7-32-17.4c-10.9-4.1-22.7-4.7-33.9-1.7c-5.8,1.3-11.7,2-17.7,2.2H101c-4.5,3.5-8,8.1-10.4,13.3
				c-2.3,4.5-7.8,6.3-12.3,4.1c-4.5-2.3-6.3-7.7-4.1-12.2c1.6-3.1,3.4-6.1,5.4-9c-4.7-1.8-9.1-4.5-12.8-7.9
				c-3.5-3.6-3.5-9.3,0.1-12.9c3.5-3.5,9.3-3.6,12.9-0.1c6,4.6,13.4,6.9,21,6.5c4.9-0.1,9.7-0.7,14.5-1.9
				c14.3-3.6,29.4-2.8,43.3,2.3c12.7,5,24.7,11.5,35.9,19.2c15.9,11.4,33.6,19.9,52.5,25c0-0.9,0-1.8,0-2.8
				C210.5,268.6,182.9,231.1,182.9,201.1z"/>
			<path class="st0" d="M494.2,222.3c-5.1-12-11-23.7-17.6-35l-18.5-37c-18-30.9-42.1-57.8-70.7-79.3
				c-19.1-15.5-42.8-24.5-67.4-25.4c-10-0.9-20,2.2-27.7,8.7c-0.7,0.7-1.3,1.5-1.9,2.3c-0.7,1-1.4,2-2,3c-0.1,0.2-0.2,0.4-0.4,0.7
				c-0.6,1.1-1.1,2.2-1.5,3.4c-0.1,0.2-0.2,0.4-0.2,0.7c-0.4,1.2-0.8,2.4-1.1,3.7c0,0.2-0.1,0.4-0.1,0.6c-0.3,1.3-0.6,2.6-0.8,3.9
				l-0.1,0.5c-0.2,1.3-0.4,2.7-0.5,4v0.4c-0.1,1.4-0.2,2.7-0.2,4v0.4c-0.1,2.8-0.1,5.4-0.1,7.9v1.7c0.2,40.4-3.4,80.7-10.8,120.3
				c-3.5,18.3-5.8,36.8-7,55.4c25.9-17.6,45.3-45,45.3-66c1.5-17.2,7.4-33.8,16.9-48.2c5.1-7.6,8.6-16,10.5-25c0-5.1-2-7.3-6.5-11.8
				c-7.4-6.1-11.7-15.2-11.8-24.8c0-5,4.1-9.1,9.1-9.1s9.1,4.1,9.1,9.1c0,5.1,2,7.3,6.5,11.8c0.6,0.6,1.2,1.2,1.8,1.8
				c4.1-5.2,9.3-9.5,15.1-12.7c4.5-2.2,10-0.4,12.2,4.1s0.4,10-4.1,12.3c-7.3,3.8-12.3,11-13.2,19.3c-1.5,12.1-5.9,23.7-12.8,33.8
				l-0.1,0.2c2.4,0.2,4.8,0.6,7.2,1.1c6.3,2.4,13.4,0.4,17.5-5c10.5-13,26.3-20.7,43-21c5,0,9.1,4.1,9.1,9.1s-4.1,9.1-9.1,9.1
				c-14.5,0-21.4,6.9-30.1,15.6c-8.3,9.7-21.6,13.6-33.8,10c-4.5-1.4-9.4-1.2-13.7,0.6c-2.8,6.1-4.4,12.7-4.6,19.4
				c0,30-27.7,67.5-63.9,87.7c0,0.9,0,1.8,0,2.8c18.8-5.2,36.6-13.6,52.5-25c11.2-7.7,23.3-14.2,35.9-19.2c13.9-5.1,29-5.9,43.3-2.3
				c4.7,1.1,9.6,1.7,14.5,1.9c7.6,0.4,15.1-1.9,21.1-6.6c3.6-3.4,9.4-3.3,12.9,0.3s3.5,9.2-0.1,12.8c-3.8,3.4-8.1,6.1-12.9,7.9
				c2,2.9,3.8,5.9,5.4,9c2.2,4.5,0.4,10-4.1,12.2c-4.5,2.3-10,0.4-12.3-4.1c-2.4-5.2-6-9.8-10.5-13.3c-5.9-0.1-11.9-0.9-17.7-2.2
				c-11.2-3-23.1-2.4-33.9,1.7c-11.2,4.6-22,10.5-32,17.4c-4.4,2.7-8.9,5.5-13.5,8.3c1.4,1.9,2.7,3.9,3.8,6
				c4.3,7.5,8.4,14.5,20.5,14.5c8.3,0.4,16.3-2.7,22.2-8.5c6.3-6.1,14.7-9.7,23.5-9.8c5,0,9.1,4.1,9.1,9.1s-4.1,9.1-9.1,9.1
				c-4.8,0-7.1,1.8-11.9,5.7c-1.3,1.1-2.8,2.2-4.3,3.4c4.9,3.5,9.4,7.5,13.6,11.9c3.5,3.6,3.5,9.3-0.1,12.9
				c-3.5,3.5-9.3,3.6-12.9,0.1c-8.7-8.7-15.6-15.6-30.1-15.6c-15.7,0-30-9.3-36.3-23.7c-0.8-1.3-1.8-3-2.5-4
				c-1.1-0.3-2.2-0.8-3.1-1.5c-9.7,5-20,8.4-30.7,10.2c0,0.6,0.1,1.2,0.1,1.8c28.1,5.6,55.8,33.2,69.8,47.3
				c30.5,30.5,55.4,38.5,80.9,25.7c0.1,0,0.2-0.1,0.3-0.1l0.2-0.1c1.6-0.8,3.3-1.4,5-1.9c3.5-3.5,6.5-7.6,8.7-12.1
				c2.3-4.5,7.8-6.3,12.3-4.1c4.5,2.3,6.3,7.7,4.1,12.2c-0.6,1.1-1.5,2.9-2.7,4.8c7.2,2.7,13.7,6.8,19.3,12
				c3.5,3.6,3.5,9.3-0.1,12.9c-3.5,3.5-9.3,3.6-12.9,0.1c-5.9-5.8-13.8-8.9-22.1-8.7c-1.6,0.8-3.3,1.4-5.1,1.7
				c-19.8,9.9-43.1,9.5-62.6-0.9c2.3,7.9,3.9,16,4.5,24.2c5.8,2.9,12.1,4.5,18.6,4.6c5,0,9.1,4.1,9.1,9.2S389,448,384,448
				c-5.1-0.1-10.1-0.8-15-2c2.1,5,5.6,9.2,10.1,12.2c4.4,2.4,6.1,7.8,3.8,12.3c-2.3,4.4-7.7,6.2-12.1,4
				c-15.5-9.4-24.5-26.6-23.3-44.8c-0.5-17.3-5.9-34.1-15.6-48.4c-0.4-0.4-0.7-0.9-0.9-1.4c-2.7-2.4-5.5-5-8.2-7.7
				c-11-11-34.5-34.5-55.9-41.2c1.8,39.2,10.4,77.8,25.4,114.1c18.7,40.2,58.8,66.1,103.1,66.8c2.3,0,41.1,0.1,43.5,0.1
				c54,0,73.1-44.3,73.1-82.3C512,287.7,502.8,248.2,494.2,222.3z"/>
			<path class="st0" d="M265.4,77.6c0.1-1.3,0.2-2.6,0.3-3.9c0.1-0.7,0.2-1.4,0.3-2.1c0.2-1.3,0.4-2.6,0.6-3.9
				c0.1-0.8,0.3-1.5,0.5-2.3c0.3-1.2,0.6-2.5,1-3.7c0.2-0.9,0.5-1.7,0.8-2.6c0.3-1,0.8-2,1.2-3c1.1-2.9,2.6-5.7,4.3-8.3V9.1
				c0-5-4.1-9.1-9.1-9.1H247c-5,0-9.1,4.1-9.1,9.1v38.6c1.7,2.6,3.2,5.4,4.3,8.3c0.4,1,0.8,2,1.2,3c0.3,0.9,0.5,1.7,0.8,2.6
				c0.4,1.2,0.7,2.5,1,3.7c0.2,0.8,0.3,1.5,0.5,2.3c0.2,1.3,0.5,2.6,0.6,3.9c0.1,0.7,0.2,1.4,0.3,2.1c0.1,1.3,0.2,2.6,0.3,3.9
				c0,0.7,0.1,1.4,0.1,2c0.1,1.2,0.1,2.4,0.1,3.6c0,0.6,0,1.3,0,1.8c0,1.5,0,3,0,4.4v0.2v1.8c0,5.8,0.1,11.3,0.2,16.7
				c0,0.6,0,1.2,0,1.8c0.1,5,0.3,9.8,0.5,14.4c0,0.8,0.1,1.6,0.1,2.4c0.2,4.4,0.5,8.7,0.8,12.9c0.1,0.8,0.1,1.6,0.2,2.4
				c0.3,4.1,0.6,8,1,11.8c0.1,0.7,0.1,1.3,0.2,2c0.4,3.8,0.8,7.5,1.2,11.1c0.1,0.4,0.1,0.9,0.2,1.3c0.4,3.3,0.8,6.5,1.3,9.6
				c0.1,0.6,0.2,1.1,0.2,1.7c0.4,3.1,0.9,6.2,1.4,9.1c0.1,0.8,0.3,1.6,0.4,2.5c0.4,2.7,0.9,5.4,1.3,8l0.2,1.2l0.2-1.2
				c0.4-2.6,0.9-5.3,1.3-8c0.1-0.8,0.2-1.6,0.4-2.4c0.5-3,0.9-6,1.4-9.2c0.1-0.6,0.2-1.1,0.2-1.7c0.4-3.1,0.9-6.3,1.3-9.6
				c0.1-0.4,0.1-0.9,0.2-1.3c0.4-3.6,0.8-7.3,1.2-11.1c0.1-0.7,0.1-1.3,0.2-2c0.4-3.8,0.7-7.7,1-11.8c0.1-0.8,0.1-1.6,0.2-2.4
				c0.3-4.1,0.6-8.4,0.8-12.9c0-0.8,0.1-1.6,0.1-2.3c0.2-4.6,0.4-9.4,0.5-14.4c0-0.6,0-1.2,0-1.8c0.1-5.3,0.2-10.9,0.2-16.7v-1.8
				v-0.2c0-1.4,0-2.8,0-4.4c0-0.6,0-1.2,0-1.8c0-1.2,0.1-2.4,0.1-3.6C265.3,78.9,265.4,78.2,265.4,77.6z"/>
		</g>
	</g>
</g>
</svg>
