<?xml version="1.0" encoding="utf-8"?>
<!-- Generator: Adobe Illustrator 22.0.0, SVG Export Plug-In . SVG Version: 6.00 Build 0)  -->
<svg version="1.1" id="Layer_1" xmlns="http://www.w3.org/2000/svg" xmlns:xlink="http://www.w3.org/1999/xlink" x="0px" y="0px"
	 viewBox="0 0 50 50" style="enable-background:new 0 0 50 50;" xml:space="preserve">
<style type="text/css">
	.st0{fill:#00AC7D;}
</style>
<g>
	<path class="st0" d="M19.1,39.1c-0.5,0-1-0.3-1.2-0.7l-1.7-3c-0.4-0.7-0.2-1.5,0.5-1.9s1.5-0.2,1.9,0.5l1.7,3
		c0.4,0.7,0.2,1.5-0.5,1.9C19.6,39.1,19.3,39.1,19.1,39.1z"/>
	<path class="st0" d="M25.9,39.1c-0.5,0-1-0.3-1.2-0.7l-1.7-3c-0.4-0.7-0.2-1.5,0.5-1.9s1.5-0.2,1.9,0.5l1.7,3
		c0.4,0.7,0.2,1.5-0.5,1.9C26.3,39.1,26.1,39.1,25.9,39.1z"/>
	<path class="st0" d="M32.7,39.1c-0.5,0-1-0.3-1.2-0.7l-1.7-3c-0.4-0.7-0.2-1.5,0.5-1.9s1.5-0.2,1.9,0.5l1.7,3
		c0.4,0.7,0.2,1.5-0.5,1.9C33.1,39.1,32.9,39.1,32.7,39.1z"/>
	<path class="st0" d="M10.7,28l-0.5,3.1h29.6L39.3,28H10.7z"/>
	<path class="st0" d="M45,10.9H5c-2.2,0-4,1.8-4,4V27c0,2.2,1.8,4,4,4h2.3l0-0.2l0.1-0.5l0.3-1.7L8,26.4c0.1-0.7,0.7-1.2,1.4-1.2
		h31.1c0.7,0,1.3,0.5,1.4,1.2l0.3,2.2l0.3,1.7l0.1,0.5l0,0.2H45c2.2,0,4-1.8,4-4V14.9C49,12.7,47.2,10.9,45,10.9z M39.6,22.9
		c-0.8,0-1.5-0.7-1.5-1.5s0.7-1.5,1.5-1.5s1.5,0.7,1.5,1.5S40.4,22.9,39.6,22.9z M39.6,18.9c-0.8,0-1.5-0.7-1.5-1.5s0.7-1.5,1.5-1.5
		s1.5,0.7,1.5,1.5S40.4,18.9,39.6,18.9z"/>
</g>
</svg>
