<?xml version="1.0" encoding="utf-8"?>
<!-- Generator: Adobe Illustrator 22.0.0, SVG Export Plug-In . SVG Version: 6.00 Build 0)  -->
<svg version="1.1" id="Layer_1" xmlns="http://www.w3.org/2000/svg" xmlns:xlink="http://www.w3.org/1999/xlink" x="0px" y="0px"
	 viewBox="0 0 50 50" style="enable-background:new 0 0 50 50;" xml:space="preserve">
<style type="text/css">
	.st0{fill:#00AC7D;}
</style>
<g>
	<g>
		<g>
			<path class="st0" d="M42.3,16.6c0-2.6-0.9-3.6-3.6-3.6H11.3c-2.6,0-3.6,0.9-3.6,3.6V25h34.7V16.6z"/>
			<path class="st0" d="M47.1,19c-1.3,0-2.4,1.1-2.4,2.4v6H5.3v-6c0-1.3-1.1-2.4-2.4-2.4c-1.3,0-2.4,1.1-2.4,2.4V31
				c0,1.3,1.1,2.4,2.4,2.4h1.2V37h3.6v-3.6h34.7V37h3.6v-3.6h1.2c1.3,0,2.4-1.1,2.4-2.4v-9.6C49.5,20.1,48.4,19,47.1,19z"/>
		</g>
	</g>
</g>
</svg>
