<?xml version="1.0" encoding="utf-8"?>
<!-- Generator: Adobe Illustrator 22.0.0, SVG Export Plug-In . SVG Version: 6.00 Build 0)  -->
<svg version="1.1" id="Layer_1" xmlns="http://www.w3.org/2000/svg" xmlns:xlink="http://www.w3.org/1999/xlink" x="0px" y="0px"
	 viewBox="0 0 50 50" style="enable-background:new 0 0 50 50;" xml:space="preserve">
<style type="text/css">
	.st0{fill:#00AC7D;}
</style>
<g>
	<rect x="19.8" y="44.6" class="st0" width="2.4" height="4.4"/>
	<rect x="27.8" y="44.6" class="st0" width="2.4" height="4.4"/>
	<path class="st0" d="M34.4,41.5H15.6c-0.5,0-1-0.1-1.4-0.2c0.8,1.1,2.1,1.9,3.5,1.9h14.5c1.5,0,2.8-0.7,3.6-1.9
		C35.3,41.4,34.9,41.5,34.4,41.5z"/>
	<path class="st0" d="M34.4,1H15.6c-2.9,0-5.3,2.4-5.3,5.3v28.5c0,2.9,2.4,5.3,5.3,5.3h18.7c2.9,0,5.3-2.4,5.3-5.3V6.3
		C39.7,3.4,37.3,1,34.4,1z M25,18.4c-3.2,0-5.8-2.6-5.8-5.8c0-3.2,2.6-5.8,5.8-5.8c3.2,0,5.8,2.6,5.8,5.8
		C30.8,15.8,28.2,18.4,25,18.4z"/>
	<path class="st0" d="M27.3,9.3C27.3,9.3,27.3,9.3,27.3,9.3C27.3,9.3,27.3,9.3,27.3,9.3c-0.7-0.5-1.5-0.7-2.3-0.7
		c-2.3,0-4.1,1.8-4.1,4.1c0,0.3,0.3,0.6,0.6,0.6c0.3,0,0.6-0.3,0.6-0.6c0-1.6,1.3-2.8,2.8-2.8c0.4,0,0.8,0.1,1.1,0.2l-1.7,2.8
		c-0.2,0.3-0.1,0.7,0.2,0.9c0.1,0.1,0.2,0.1,0.3,0.1c0.2,0,0.4-0.1,0.5-0.3l1.6-2.7c0.4,0.5,0.7,1.1,0.7,1.8c0,0.3,0.3,0.6,0.6,0.6
		c0.3,0,0.6-0.3,0.6-0.6C29.1,11.3,28.4,10,27.3,9.3z"/>
</g>
</svg>
