<?xml version="1.0" encoding="utf-8"?>
<!-- Generator: Adobe Illustrator 22.0.0, SVG Export Plug-In . SVG Version: 6.00 Build 0)  -->
<svg version="1.1" id="Layer_1" xmlns="http://www.w3.org/2000/svg" xmlns:xlink="http://www.w3.org/1999/xlink" x="0px" y="0px"
	 viewBox="0 0 50 50" style="enable-background:new 0 0 50 50;" xml:space="preserve">
<style type="text/css">
	.st0{fill:#00AC7D;}
</style>
<g>
	<g>
		<g>
			<path class="st0" d="M0.5,21.7v16.7c0,1.1,1.2,2.5,2.3,2.5h1.5v1.3c0,1,0,1,0.4,1h1.5c0.4,0,0.3,0,0.4-1v-1.3h17.6V21.7H0.5z
				 M16,24.8h-5.4c-0.4,0-0.8-0.3-0.8-0.8s0.3-0.8,0.8-0.8H16c0.4,0,0.8,0.3,0.8,0.8S16.4,24.8,16,24.8z"/>
		</g>
	</g>
	<g>
		<g>
			<path class="st0" d="M0.5,14.9v5.4h49v-5.4H0.5z M28.1,18.3h-5.4c-0.4,0-0.8-0.3-0.8-0.8s0.3-0.8,0.8-0.8h5.4
				c0.4,0,0.8,0.3,0.8,0.8S28.5,18.3,28.1,18.3z"/>
		</g>
	</g>
	<g>
		<g>
			<path class="st0" d="M25.8,21.7v19.1h18v1.3c0,1,0,1,0.4,1h1.7c0.2,0,0.2,0,0.2-1v-1.3H48c1.1,0,1.5-1.4,1.5-2.5V21.7H25.8z
				 M40.1,24.8h-5.4c-0.4,0-0.8-0.3-0.8-0.8s0.3-0.8,0.8-0.8h5.4c0.4,0,0.8,0.3,0.8,0.8S40.6,24.8,40.1,24.8z"/>
		</g>
	</g>
	<g>
		<g>
			<path class="st0" d="M48,6.8H2.8c-1.1,0-2.3,0.3-2.3,1.3v5.2h49V8.2C49.5,7.1,49,6.8,48,6.8z M28.1,11.4h-5.4
				c-0.4,0-0.8-0.3-0.8-0.8s0.3-0.8,0.8-0.8h5.4c0.4,0,0.8,0.3,0.8,0.8S28.5,11.4,28.1,11.4z"/>
		</g>
	</g>
</g>
</svg>
