<?xml version="1.0" encoding="utf-8"?>
<!-- Generator: Adobe Illustrator 22.0.0, SVG Export Plug-In . SVG Version: 6.00 Build 0)  -->
<svg version="1.1" id="Layer_1" xmlns="http://www.w3.org/2000/svg" xmlns:xlink="http://www.w3.org/1999/xlink" x="0px" y="0px"
	 viewBox="0 0 50 50" style="enable-background:new 0 0 50 50;" xml:space="preserve">
<style type="text/css">
	.st0{fill-rule:evenodd;clip-rule:evenodd;fill:#00AC7D;}
</style>
<path class="st0" d="M45.7,20c4-1.2,3.9-7.8,0.5-8.7c-7.5-2.2-17.3-3.1-25-4.4c-1.9-0.3-3.5-0.7-5.4-0.2c-3.5,0.9-7.5,2.1-10.9,3.5
	c-2.1,0.9-4.1,3.3-3.9,6.4c0.2,3.4,2.7,4.9,4.7,5.8c4.6,1.9,9.3,3.3,14,4.7c2.9,0.8,5.6,1.7,8.3,3.1c1,0.5,1.9,1,3,0.7
	c2.4-0.7,4.9-1.9,7.2-3c2.4-1.2,4.9-2.4,7.3-3.8c0.4-0.2,0.8-0.6,0.9-1.1c0.2-0.7-0.1-1.6-0.7-1.6c-0.5,0-1.8,0.5-2.4,0.7
	c-3.3,1.2-6.7,2.8-10,3.7c-2.7,0.8-3.3-3.9-0.9-5c4.1-1.8,7.9-2.7,11.9-4.2c1.5-0.6,2,0.2,0.4,0.8c-4,1.5-8.1,2.9-12.1,4.6
	c-1.2,0.5-1.2,2.9,0.3,2.5c3.3-1,6.7-2.5,10-3.7C43.8,20.5,45,20,45.7,20L45.7,20z M32.9,36.7c1.1,1.1,2.3,1.6,3.7,1.2
	c2.9-0.8,6.2-3.7,8.9-4.1c1,2-0.9,2.5-2,2.9c-2.5,1-5,2.1-7.5,3.3c-1.5,0.8-3.4,1.7-4.9,2.8c-1.5,1.2-2.7,0.6-4.3,0
	c-3.1-1.1-6.1-2.2-9.2-3.5c-4.8-2-9.3-4.6-13.9-7c-3.3-1.7-2.3-7.4-0.2-9.8c0.7,0.4,1.4,0.7,2,1c4.7,1.9,9.4,3.3,14.2,4.7
	c2.7,0.8,5.4,1.6,8,2.9c1.3,0.6,2.2,1.2,3.6,0.8c2.4-0.7,5-2,7.3-3.1c2.4-1.2,5.6-2.5,7.8-4.1c3.8-0.6,3.2,7.5-0.7,7.7
	c-2.9,0.1-6.4,3.2-9.4,4.1c-1,0.3-1.9-0.1-2.7-0.8c2.9-2.5,11.8-4.2,13.2-7.7c-3.1,1.6-12,4.9-14,6.9c-1.3,1.2-1.8,3.5-1,5.7
	C31.8,39,31.9,38.1,32.9,36.7z"/>
</svg>
